<svg xmlns="http://www.w3.org/2000/svg" xmlns:xlink="http://www.w3.org/1999/xlink" viewBox="0 50.58997344970703 380 489.41002655029297"><defs><radialGradient id="hex-frame-stroke" cx="0" cy="0" gradientTransform="matrix(201.88813,61.382495,-31170.321,102519.62,-2.0097474,295.40586)" gradientUnits="userSpaceOnUse" r="1"><stop offset="0" stop-color="#00000"/><stop offset=".29" stop-color="#00000"/><stop offset=".53" stop-color="#00000"/><stop offset=".84" stop-color="#00000"/><stop offset=".87" stop-color="#00000"/><stop offset="1" stop-color="#00000"/></radialGradient><linearGradient id="hex-frame-bg" gradientUnits="userSpaceOnUse" gradientTransform="matrix(1.0362797,0,0,1.0362797,150.50099,288.55634)" x1="-92.955505" y1="-124.51587" x2="143.67026" y2="226.29623"><stop style="stop-color:#3fe1fe" offset="0.36240309"/><stop style="stop-color:#3fe1fe" offset="0.77810073"/></linearGradient><path id="hex-frame" stroke="url(#hex-frame-stroke)" stroke-linejoin="round" stroke-width="16" d="m 177.75041,189.74577 c 7.64778,-4.12577 17.10688,-4.12577 24.75465,0 l 118.43998,65.2074 c 7.54715,4.2264 12.07544,11.77355 12.07544,19.72322 v 130.21353 c 0,7.94966 -4.52829,15.49681 -12.07544,19.62259 l -118.43998,65.10677 c -7.64777,4.2264 -17.10687,4.2264 -24.75465,0 L 59.310436,424.41188 A 22.641456,22.641456 0 0 1 47.235,404.78929 V 274.57576 c 0,-7.94967 4.42766,-15.39619 12.075436,-19.72323 z"/><clipPath id="avatar-upper"><rect><desc>This is a workaround for a Firefox SVG rendering bug.</desc></rect><path d="M 190,488 325.52665,413 H 380 V 0 H 0 v 413 h 55 z"/></clipPath><clipPath id="hex-frame-foreground-clip"><rect x="0" y="413" width="380" height="187"/></clipPath></defs><use id="hex-frame-background" xlink:href="#hex-frame" fill="url(#hex-frame-bg)"/><svg xmlns="http://www.w3.org/2000/svg" viewBox="0 0 380 600" width="380" height="600" clip-path="url(#avatar-upper)"><style>/* basic_background_001 */
.basic_background_001-cls-1{opacity:0.3;}
/* tirli_body_bottom_003 */
.tirli_body_bottom_003-cls-1{fill:#7e8ad9;}.tirli_body_bottom_003-cls-2{fill:#ba027d;}.tirli_body_bottom_003-cls-3{fill:#aeaee8;}.tirli_body_bottom_003-cls-4{fill:#d63660;}
/* tirli_body_003 */
.tirli_body_003-cls-1{fill:lime;}.tirli_body_003-cls-2{fill:#ead49d;}.tirli_body_003-cls-3{fill:#7e8ad9;}.tirli_body_003-cls-4{fill:#aeaee8;}
/* tirli_face_lower_003 */
.tirli_face_lower_003-cls-1{fill:#fff;}.tirli_face_lower_003-cls-2{fill:#6d001a;}.tirli_face_lower_003-cls-3{fill:#d63660;}.tirli_face_lower_003-cls-4{fill:#e36549;}.tirli_face_lower_003-cls-5{fill:#851e2e;}
/* tirli_face_upper_003 */
.tirli_face_upper_003-cls-1{fill:#f6f8f9;}.tirli_face_upper_003-cls-2{fill:#fff;}.tirli_face_upper_003-cls-3{fill:#51e9f4;}
/* tirli_head_accessory_003 */
.tirli_head_accessory_003-cls-1{fill:#fff2e9;}.tirli_head_accessory_003-cls-2{fill:#ead49d;}.tirli_head_accessory_003-cls-3{fill:#6d001a;}
/* customisation styles */
.color-hair{fill:#C08D41}.color-facialhair{fill:#C08D41}.color-body{fill:#ECD6C1}.color-eyes{fill:#FF4500}</style><g id="avatar"><g id="basic_background_001"><defs transform="matrix(-1, 0, 0, 1, 380, 0)"/><g class="basic_background_001-cls-1" transform="matrix(-1, 0, 0, 1, 380, 0)"><ellipse cx="190" cy="548.5" rx="77.5" ry="38.75"/><path d="M267.439,548.5a5.5,5.5,0,0,1-.279-1.138c-.055-.28-.082-.606-.163-.966s-.176-.759-.277-1.2a23.951,23.951,0,0,0-2.639-6.507,32.849,32.849,0,0,0-6.249-7.527,51.646,51.646,0,0,0-9.521-6.76,91.8,91.8,0,0,0-23.364-8.879,119.122,119.122,0,0,0-20.31-3.081,163.124,163.124,0,0,0-28.363.707,131.533,131.533,0,0,0-28.528,6.322,88.194,88.194,0,0,0-13.277,5.926,50.548,50.548,0,0,0-11.266,8.37,30.3,30.3,0,0,0-4.119,5.206,19.589,19.589,0,0,0-2.367,5.755,16.754,16.754,0,0,0,1.624,11.609,29.646,29.646,0,0,0,7.088,8.511,52.806,52.806,0,0,0,9.7,6.508,96.887,96.887,0,0,0,22.292,8.229,151.838,151.838,0,0,0,46.058,3.529c14.817-1.12,28.87-4.245,40.666-9.767a51.95,51.95,0,0,0,15.236-10.366c4.066-4.152,6.737-9.257,6.98-14.484a18.062,18.062,0,0,1-.456,7.974,26.913,26.913,0,0,1-4.3,8.571c-4.024,5.518-9.935,10.127-16.076,13.658a87.609,87.609,0,0,1-18.348,7.764,84,84,0,0,1-14.206,3,167.53,167.53,0,0,1-40.491-.679,140.031,140.031,0,0,1-18.889-3.923c-3.05-.859-6.049-1.818-8.973-2.921a90.533,90.533,0,0,1-8.563-3.651,70.112,70.112,0,0,1-8.015-4.513,54.012,54.012,0,0,1-7.22-5.567,36.678,36.678,0,0,1-5.876-6.927,25.169,25.169,0,0,1-3.521-8.371,21.246,21.246,0,0,1,.05-9.01,25.15,25.15,0,0,1,3.429-8.1,42.357,42.357,0,0,1,11.923-11.719,77.355,77.355,0,0,1,14.149-7.456,111.769,111.769,0,0,1,14.639-4.785,141.345,141.345,0,0,1,28.9-4.113,147.044,147.044,0,0,1,27.257,1.324,113.973,113.973,0,0,1,24.748,6.286,73.343,73.343,0,0,1,12.067,5.843,52.04,52.04,0,0,1,11.4,9.143,31.971,31.971,0,0,1,4.077,5.427,29.253,29.253,0,0,1,1.446,2.725,26.448,26.448,0,0,1,.987,2.628A20.978,20.978,0,0,1,267.439,548.5Z"/></g></g><g id="tirli_body_bottom_003"><defs/><g><g><path class="tirli_body_bottom_003-cls-2" d="M85.67,432c50.36,8.18-.49,94.5-53.27,48.59-17.25-15-22.55-58.41-10.63-38.97,18.42,81.46,94.29,20.99,63.79,3.7"/><path d="M85.57,445.3c.29,.12,1.22,.5,2.45,1.41,1.21,.91,2.84,2.34,3.94,4.62,1.15,2.25,1.54,5.31,.89,8.42-.66,3.11-2.22,6.23-4.31,9.05-4.21,5.66-10.51,10.15-16.89,12.67-6.39,2.58-12.83,2.98-17.28,2.35-1.97-.27-3.94-.72-5.86-1.36-1.92-.65-3.78-1.54-5.57-2.57-1.78-1.04-3.45-2.29-5.04-3.64-1.54-1.4-3.05-2.86-4.37-4.5-2.7-3.21-4.94-6.82-6.8-10.61-1.87-3.79-3.39-7.75-4.64-11.79-.6-2.03-1.19-4.06-1.67-6.12l-.19-.77-.04-.16s0,0,0-.01c0-.02-.02-.03-.03-.05-.24-.38-.53-.82-.81-1.22-.28-.4-.57-.79-.86-1.15-.27-.34-.65-.74-.83-.91-.09-.09-.25-.17-.34-.04-.04,.07-.05,.09-.06,.2l-.02,.14-.04,.32c-.03,.21-.03,.44-.05,.67-.07,1.85,.16,3.85,.47,5.81,.66,3.94,1.73,7.83,3.05,11.58,1.32,3.75,2.91,7.37,4.78,10.73,1.64,2.94,3.51,5.74,5.7,8.17,1.11,1.23,2.22,2.3,3.57,3.36,1.28,1.1,2.62,2.09,3.97,3.08,5.43,3.87,11.45,6.79,17.75,8.13,6.29,1.38,12.79,1.04,18.76-.79,5.98-1.81,11.37-5.11,15.87-9.13,4.47-4.07,8.1-8.89,10.55-14.07,1.22-2.59,2.17-5.26,2.76-7.95,.57-2.69,.79-5.4,.58-8.02-.25-2.61-.91-5.12-2.06-7.35-1.15-2.22-2.74-4.15-4.6-5.71-3.74-3.14-8.37-4.67-12.72-5.57,2,.15,4.26,.44,6.62,1.09,2.35,.67,4.82,1.7,7.09,3.32,2.26,1.61,4.35,3.76,5.79,6.39,1.47,2.6,2.35,5.58,2.64,8.54,.33,2.97,.11,5.93-.42,8.68-.53,2.76-1.37,5.33-2.34,7.62-1.95,4.6-4.42,8.11-6.3,10.32-7.54,8.94-17.99,14.96-28.89,16.3-5.43,.72-10.88,.18-15.95-1.18-2.54-.69-4.97-1.64-7.32-2.7-2.33-1.1-4.57-2.34-6.69-3.71-1.07-.68-2.08-1.42-3.11-2.14-.98-.77-2-1.49-2.94-2.3-.94-.81-1.9-1.56-2.81-2.44-.91-.86-1.74-1.78-2.53-2.72-3.15-3.79-5.53-8.02-7.5-12.3-1.96-4.3-3.49-8.69-4.63-13.11-.57-2.21-1.04-4.44-1.36-6.68-.29-2.26-.55-4.45-.18-6.87,.12-.68,.35-1.49,.81-2.03,.21-.29,.51-.5,.84-.64,.34-.14,.71-.12,1.05-.07,.69,.15,1.34,.58,1.89,1.1,.49,.45,.84,.86,1.2,1.31,.36,.44,.68,.89,1,1.34l.46,.68,.48,.75c.13,.15,.14,.34,.2,.53l.1,.42,.19,.77,.38,1.53c1.06,4.06,2.33,8,3.88,11.74,1.54,3.74,3.37,7.28,5.53,10.51,2.15,3.23,4.65,6.14,7.51,8.51,2.83,2.4,6.04,4.21,9.4,5.38,1.68,.58,3.41,.97,5.14,1.24,1.73,.24,3.47,.31,5.2,.27,6.92-.25,13.43-2.74,18.83-6.32,2.56-1.71,5.43-4.04,7.9-6.94,2.46-2.88,4.53-6.38,5.25-10,.36-1.8,.37-3.61,0-5.23-.37-1.62-1.07-3.06-1.91-4.18-1.68-2.28-3.61-3.44-4.48-4.05Z"/></g><path class="tirli_body_bottom_003-cls-4" d="M85.56,445.33c12.47,5.45,16.73-11.43-.52-13.33"/><g><path class="tirli_body_bottom_003-cls-4" d="M85.56,445.33c-38.91,26.33,19.27,66.7,57.86,35.86,47.73,18.97-25.85,41.87-59.65,21.22-40.25-23.76-23.38-70.83,1.9-70.41"/><path d="M85.67,432.06c-.31,.19-1.28,.3-2.72,.58-.36,.08-.75,.18-1.16,.27-.21,.05-.42,.1-.65,.15-.22,.07-.44,.15-.67,.23-.46,.15-.94,.31-1.45,.48-.49,.22-1,.45-1.53,.69-2.1,1.02-4.38,2.53-6.49,4.59-2.12,2.05-4.06,4.63-5.62,7.56-3.14,5.84-4.59,13.03-4.1,19.44,.22,3.21,.86,6.22,1.67,8.86,.91,2.61,1.89,4.9,2.97,6.67,1.82,3.15,4.02,6.16,6.69,8.82,2.65,2.66,5.61,5.09,8.83,7.21,.8,.54,1.66,1.01,2.49,1.52,.83,.51,1.67,1,2.52,1.45,1.69,.89,3.44,1.67,5.24,2.37,3.63,1.35,7.44,2.34,11.35,2.99,7.81,1.31,15.91,1.4,23.77,.55,3.93-.42,7.8-1.12,11.53-2.06,3.71-.97,7.31-2.21,10.46-3.84,1.37-.71,2.65-1.51,3.72-2.37,1.07-.85,1.92-1.81,2.28-2.59,.2-.39,.29-.72,.29-1,.02-.29,0-.57-.15-.93-.22-.71-.93-1.67-1.91-2.56-.96-.9-2.17-1.76-3.48-2.54-1.29-.79-2.69-1.51-4.12-2.18l-1.09-.49-.27-.12c-.1-.04-.03-.01-.05-.02h0s0,0-.03,.01l-1.19,.82c-.74,.53-1.51,1.01-2.28,1.49-6.15,3.83-13.05,6.3-19.99,7.34-6.95,1.04-13.93,.66-20.43-.9-6.5-1.56-12.57-4.31-17.7-8.14-2.55-1.93-4.88-4.12-6.8-6.63-1.93-2.49-3.47-5.29-4.37-8.29-.91-2.99-1.11-6.16-.6-9.11,.52-2.95,1.68-5.65,3.2-7.93,3.06-4.58,7.15-7.65,11.08-10.04-2.92,3.01-6.44,6.87-8.5,11.64-1.01,2.37-1.62,4.92-1.56,7.42,.02,2.5,.7,4.91,1.77,7.07,2.2,4.36,5.97,7.65,9.51,10.01,3.57,2.37,6.98,3.83,9.31,4.88,9.45,4.2,20.26,4.96,29.93,2.45,4.85-1.25,9.43-3.3,13.56-5.95l1.57-1.05,2.27-1.68,.28-.21,.07-.05s.05,.02,.08,.03l.16,.07,.66,.28,1.3,.56,.65,.28c.22,.09,.45,.19,.57,.26l.88,.42c2.34,1.12,4.62,2.37,6.77,3.89,2.12,1.53,4.22,3.32,5.57,5.94,.66,1.29,1.05,2.86,.91,4.4-.13,1.55-.74,2.96-1.52,4.12-1.59,2.33-3.73,3.85-5.85,5.14-2.15,1.27-4.38,2.25-6.62,3.09-4.49,1.66-9.05,2.73-13.57,3.49-4.52,.75-9.01,1.15-13.44,1.27-8.85,.2-17.5-.7-25.57-3.12-4.02-1.21-7.91-2.85-11.44-4.95-3.47-2.08-6.8-4.35-9.77-6.99-2.95-2.65-5.61-5.56-7.84-8.72-2.18-3.2-3.95-6.61-5.21-10.15-2.57-7.08-2.92-14.61-1.52-21.44,.63-3.26,1.9-7.02,3.93-10.57,2.01-3.55,4.77-6.86,7.89-9.28,3.13-2.42,6.55-3.88,9.39-4.48,1.41-.35,2.7-.38,3.73-.48,1.04,.04,1.85,.07,2.39,.09Z"/></g></g><g><g id="default"><g><path class="tirli_body_bottom_003-cls-3" d="M139.76,463c3.26,34.11,111.79,32.94,115.13,.63-1.37-34.85-113.39-33.81-115.13-.63Z"/><path d="M139.73,463c-.02-.14-.03-.42-.02-.84,0-.21,.02-.45,.03-.73,.04-.27,.09-.57,.15-.9,.23-1.32,.76-3.1,1.89-4.96,1.12-1.87,2.81-3.79,4.92-5.52,2.11-1.74,4.64-3.31,7.37-4.67,5.48-2.71,11.75-4.57,17.53-5.82,5.8-1.25,11.13-1.9,14.94-2.3,6.74-.69,13.78-.88,20.95-.49,7.16,.4,14.47,1.35,21.65,3.23,3.58,.95,7.14,2.1,10.57,3.64,3.43,1.53,6.75,3.42,9.69,5.93,1.45,1.27,2.8,2.68,3.96,4.28,1.15,1.6,2.05,3.4,2.64,5.31,.32,.94,.49,1.93,.64,2.91l.15,1.59c-.04,.45-.09,.64-.12,.9l-.11,.74c-.38,1.96-1.12,3.82-2.1,5.49-1.72,2.94-4.15,5.26-6.72,7.18-2.59,1.91-5.39,3.41-8.24,4.69-5.71,2.53-11.65,4.13-17.55,5.27-11.83,2.24-23.58,2.59-34.67,1.74-11.08-.9-21.61-3.06-30.69-7.08-4.51-2.04-8.67-4.57-11.89-7.88-1.6-1.65-2.95-3.5-3.9-5.49-.95-1.98-1.48-4.09-1.61-6.14,.39,1.81,1.1,3.74,2.22,5.56,1.11,1.82,2.62,3.53,4.39,5.02,3.55,3,8.08,5.16,12.61,6.76,4.55,1.61,9.14,2.66,13.16,3.41,4.02,.76,7.48,1.22,9.86,1.57,9.59,1.4,19.1,1.67,28.25,1,9.13-.7,17.98-2.28,26.04-5.28,4-1.53,7.83-3.39,11.08-5.91,3.24-2.48,5.92-5.7,6.92-9.47,.14-.46,.25-.93,.3-1.41l.11-.67c0-.14-.03-.42-.05-.65-.04-.48-.08-.96-.19-1.43-.09-.47-.16-.94-.32-1.4-.52-1.84-1.4-3.55-2.52-5.08-1.11-1.54-2.49-2.88-3.95-4.07-1.47-1.19-3.04-2.25-4.68-3.16-6.58-3.66-13.76-5.62-20.71-6.94-6.98-1.29-13.86-1.86-20.5-2-13.28-.22-25.72,1.2-36.82,4.29-5.23,1.51-12.39,4.03-17.55,8.09-2.56,2.02-4.56,4.39-5.61,6.63-1.11,2.22-1.34,4.15-1.48,5.08Z"/></g></g><g><g><path class="tirli_body_bottom_003-cls-4" d="M229.26,518.55c42.97,27.81-18.35,58.43-23.39,9.18"/><path d="M205.9,527.73c.38,.32,.79,3.72,1.94,7.45,.57,1.86,1.29,3.82,2.14,5.49,.85,1.68,1.81,3.09,2.56,4.02,1.36,1.63,2.95,3.12,4.75,4.34,1.81,1.19,3.83,2.11,5.95,2.58,4.24,1,8.84,.27,12.38-1.77,3.1-1.76,5.51-4.54,6.41-7.7,.96-3.16,.33-6.58-1.08-9.55-1.42-2.99-3.52-5.58-5.64-7.81-2.15-2.22-4.36-4.1-6.37-5.75,2.38,.57,5.64,1.98,8.4,3.95,2.78,1.92,5.02,4.41,5.8,5.98,1.62,3.09,2.66,6.49,2.55,9.83-.08,3.34-1.33,6.45-3.22,8.82-1.88,2.39-4.31,4.11-6.85,5.25-2.55,1.15-5.24,1.7-7.86,1.77-5.26,.14-10.15-1.89-13.58-4.98-3.49-3.07-5.63-6.96-6.86-10.68-.63-1.77-1.13-4.28-1.31-6.49-.19-2.21-.14-4.12-.13-4.74Z"/></g><g><path class="tirli_body_bottom_003-cls-1" d="M248.44,473.93c-1.38,15.25-10.96,34.02-19.18,44.61-4.21,6.76-12.62,8.29-23.39,9.18-15.03-29.78-6.51-54.55-3.28-62.39"/><path d="M202.62,465.35c.04,.32-.42,1.74-1.06,3.82-.61,2.1-1.38,4.87-1.99,7.9-.57,3.03-1.08,6.29-1.24,9.29-.05,.75-.11,1.48-.13,2.19,0,.71,0,1.39-.01,2.04,0,.65,0,1.26,0,1.84,.02,.57,.07,1.11,.1,1.59,.45,6.83,1.79,14.07,4.18,21.02,1.2,3.47,2.6,6.89,4.23,10.16l.15,.31,.08,.17,.04,.07s.06,.03,.1,.02c.74-.08,1.48-.17,2.21-.25,1.79-.22,3.56-.46,5.25-.8,2.96-.59,5.84-1.39,8.25-2.76,1.2-.69,2.29-1.49,3.21-2.44,.43-.5,.89-.98,1.24-1.55l.29-.41c.19-.28,.21-.29,.27-.38l.17-.22,.67-.89c3.56-4.77,6.59-9.8,9.21-14.73,5.23-9.87,8.72-19.46,10.03-27.46,.54,3.68,.08,9.21-1.1,14.27-1.15,5.07-2.95,9.66-4.17,11.92-2.46,4.55-5.06,8.82-7.81,12.8-1.39,1.98-2.78,3.92-4.26,5.74l-.49,.62-.54,.75c-.34,.51-.79,.93-1.19,1.4-.43,.43-.88,.84-1.33,1.23-.49,.35-.94,.75-1.45,1.05-1.99,1.3-4.14,2.15-6.28,2.76-2.15,.62-4.29,1.01-6.4,1.31-1.05,.16-2.1,.28-3.14,.4-.52,.05-1.04,.11-1.55,.16-.61,.06-1.21,.11-1.81,.17l-.53,.05-.26,.02h-.13s-.04-.06-.07-.09l-.44-.95c-.25-.52-.49-1.05-.73-1.57-.43-.92-.86-1.83-1.28-2.73-3.21-7.3-5.24-14.57-6.15-21.52-.9-6.96-.72-13.57,.28-19.58,.18-1.44,.6-3.11,1.01-4.84,.48-1.72,1.01-3.5,1.62-5.12,1.18-3.26,2.51-5.92,2.96-6.79Z"/></g><path d="M224.05,538.29c.24-.21,.88,.13,1.47,.65,.59,.52,1.18,1.18,1.6,1.48,1.5,1.07,2.64,2.72,3.58,4.24,1.67,2.65,2.32,5.81,1.8,8.05-1.83-.44-3.45-1.51-3.39-2.15,.23-2.6-.64-4.61-1.65-6.16-1.02-1.57-2.17-2.72-2.79-3.94-.32-.55-.52-1.87-.62-2.18Z"/><path d="M233.34,533.99c.25-.19,.83,.15,1.38,.63,.55,.48,1.1,1.08,1.51,1.35,1.45,.93,2.58,2.39,3.56,3.72,1.73,2.32,2.6,5.14,2.38,7.3-1.85-.09-3.56-.9-3.57-1.52,0-2.51-.95-4.31-2-5.71-1.05-1.42-2.19-2.45-2.77-3.64-.31-.52-.42-1.82-.48-2.12Z"/></g><g id="default-2"><g><path class="tirli_body_bottom_003-cls-3" d="M254.91,463.37c-24.09,83.02-126.28,60.62-114.55,0"/><path d="M140.39,463.38c.05,.19,.02,.75-.06,1.6-.1,.85-.19,2-.28,3.37-.17,2.73-.19,6.37,.37,10.19,.52,3.83,1.74,7.8,3.34,11.19,1.58,3.4,3.53,6.21,5.09,8.05,5.47,6.57,13.3,11.79,21.98,14.75,8.68,3.02,18.13,3.81,26.81,2.67,7.6-.98,14.95-3.38,21.49-6.91,6.55-3.52,12.26-8.16,16.97-13.27,2.36-2.55,4.5-5.21,6.37-7.94,1.89-2.71,3.58-5.46,5.04-8.2,2.95-5.46,5.15-10.8,6.84-15.65-.14,1.15-.33,2.44-.56,3.82-.28,1.37-.59,2.83-.97,4.34-.82,2.99-1.82,6.2-3.13,9.19-2.47,6.06-5.98,11.28-8.12,13.73-8.61,9.96-19.22,16.88-30.09,20.53-10.87,3.69-21.9,4.29-31.82,2.58-9.93-1.71-18.82-5.74-25.69-11.4-6.89-5.64-11.61-12.99-13.69-20.47-.55-1.76-.95-3.92-1.23-6.16-.2-2.26-.31-4.61-.14-6.79,.22-4.38,1.2-8.02,1.48-9.2Z"/></g></g><g><g><path class="tirli_body_bottom_003-cls-4" d="M182.5,533.17c34.03,38.17-33.22,51.49-24.99,2.63"/><path d="M157.57,535.81c.59,.46,.24,3.85,.47,7.7,.11,1.92,.33,3.95,.76,5.73,.42,1.79,1.02,3.32,1.56,4.35,.99,1.8,2.19,3.47,3.58,4.93,1.41,1.44,3.01,2.65,4.78,3.5,3.51,1.75,7.67,2.11,11.14,1.12,3.03-.85,5.55-2.61,6.98-4.87,1.46-2.25,1.86-5.12,1.48-8.1-.38-2.99-1.48-5.97-2.72-8.7-1.26-2.74-2.68-5.25-3.96-7.53,2.74,.61,6.09,2.42,8.69,4.91,2.62,2.44,4.43,5.58,4.66,7.48,.54,3.76,.43,7.61-.81,11.04-1.2,3.43-3.5,6.21-6.13,8.04-2.64,1.85-5.56,2.86-8.43,3.29-2.87,.44-5.72,.26-8.37-.36-5.32-1.25-9.79-4.57-12.46-8.63-2.73-4.04-3.81-8.56-3.88-12.6-.11-1.93,.29-4.55,.94-6.73,.64-2.19,1.43-3.97,1.7-4.55Z"/></g><g><path class="tirli_body_bottom_003-cls-3" d="M190.84,507.66c-.46,7.74-5.09,18.71-8.34,25.51-5.86,5.4-14.37,4.63-24.99,2.63-20.77-32.62-12.65-51.43-11.98-59.74"/><path d="M145.6,476.07c.27,.25,.4,1.55,.25,3.38-.12,1.84-.47,4.21-.66,6.74-.53,5.06-.16,10.78,.56,13.87,1.21,5.46,3.1,11.1,5.56,16.56l.44,1.03,.5,1.01,1,2.02,.99,2.02,1.1,1.96c.75,1.3,1.42,2.62,2.2,3.87,.79,1.24,1.57,2.47,2.34,3.68,.1,.11,.04,.02,.41,.07,1.25,.2,2.48,.38,3.69,.54,2.43,.31,4.78,.52,6.98,.48,1.11,0,2.14-.12,3.15-.25,.97-.19,1.93-.39,2.77-.74,.87-.31,1.64-.75,2.39-1.24,.08-.06,.21-.16,.24-.18h.02s.06,0,.08-.03h.02s0,0,.05-.09l.2-.38,.4-.77c4.23-8.17,7.86-15.69,9.44-22.05,1.5,3.01,1.82,7.97,1.29,12.38-.51,4.44-1.73,8.42-2.85,10.27-.57,.93-1.14,1.85-1.7,2.76l-.42,.68-.12,.19-.17,.31-.34,.62c-.16,.47-.61,.67-.99,.97l-.58,.43-.39,.26c-2.11,1.36-4.43,2.19-6.66,2.58-4.49,.79-8.54,.24-12.32-.33-.95-.15-1.88-.31-2.79-.49-.94-.18-1.88-.36-2.81-.54l-1.8-.36-.45-.09c-.09,0-.11-.09-.15-.15l-.12-.2-.47-.8c-.51-.87-1.01-1.72-1.51-2.58-1.87-3.01-3.41-6.08-4.98-9.01-2.99-5.95-5.26-11.85-6.65-17.61-1.39-5.75-1.79-11.39-1.22-16.53,.22-2.45,1.03-5.72,2.01-8.45,.48-1.37,.95-2.63,1.32-3.64,.38-1.01,.61-1.8,.76-2.2Z"/></g><path d="M172.23,550.81c.29-.14,.81,.36,1.25,1.02,.43,.66,.83,1.45,1.15,1.85,1.17,1.43,1.82,3.32,2.32,5.04,.91,3,.69,6.22-.4,8.24-1.65-.91-2.92-2.37-2.7-2.97,.91-2.44,.61-4.61,.04-6.37-.57-1.78-1.37-3.2-1.64-4.54-.16-.62,0-1.94-.02-2.27Z"/><path d="M182.33,549.15c.29-.12,.76,.36,1.16,.98,.4,.61,.77,1.34,1.1,1.7,1.15,1.28,1.85,2.99,2.44,4.53,1.05,2.7,1.14,5.65,.35,7.67-1.76-.58-3.2-1.82-3.03-2.42,.66-2.42,.23-4.41-.4-6.04-.64-1.64-1.46-2.95-1.71-4.25-.16-.59,.08-1.87,.1-2.17Z"/></g></g></g><g id="tirli_body_003"><defs/><g id="default"><g><path class="tirli_body_003-cls-3" d="M219.59,391.44c7.98,10.03,14.61,23.12,23.37,44.01,27.9,64.25,47.62,15.37,32.6-22.39-11.67-40.93-53.77-78.94-61.56-47.14"/><path d="M213.93,365.91c-.07-.28-.05-1.1,.24-2.31,.28-1.21,.77-2.86,1.8-4.65,1.01-1.77,2.68-3.77,5.2-4.94,2.51-1.19,5.63-1.29,8.51-.66,2.91,.63,5.68,1.88,8.25,3.35,2.57,1.48,4.95,3.2,7.11,4.95,4.33,3.51,7.8,7.15,10.25,9.78,8.64,9.29,16.12,20.96,21.18,33.89,.64,1.62,1.21,3.26,1.76,4.91l.39,1.25,.1,.31,.05,.16s.01,.03,0,.02c0,0,0,0,0,0-.03-.09,.1,.25,.17,.42,.34,.82,.65,1.64,.95,2.47,1.22,3.31,2.16,6.71,2.91,10.13,1.44,6.85,2.02,13.81,1.56,20.64-.2,2.99-.62,5.99-1.35,8.98-.76,2.99-1.77,5.98-3.54,8.88-.89,1.44-1.98,2.86-3.42,4.13-1.42,1.26-3.32,2.32-5.41,2.77-2.1,.48-4.27,.27-6.08-.3-1.83-.57-3.4-1.42-4.76-2.37-2.71-1.91-4.8-4.13-6.63-6.41-1.83-2.28-3.4-4.63-4.84-7-2.86-4.75-5.16-9.57-7.22-14.33-.5-1.2-.99-2.39-1.48-3.58-.46-1.17-.91-2.33-1.36-3.48-.91-2.28-1.81-4.54-2.7-6.76-1.79-4.42-3.58-8.68-5.39-12.73-3.62-8.09-7.41-15.29-11.49-21.3,2.67,2.02,5.65,4.9,8.53,8.31,2.89,3.4,5.67,7.32,8.14,11.25,4.95,7.86,8.75,15.72,10.25,19.99,.76,2.18,1.5,4.22,2.3,6.26,.8,2.05,1.64,4.06,2.54,6.02,1.78,3.93,3.76,7.67,6.02,11.09,1.13,1.71,2.36,3.32,3.68,4.77,1.32,1.45,2.75,2.73,4.29,3.63,1.53,.92,3.14,1.39,4.63,1.21,1.49-.19,2.92-1.03,4.09-2.32,2.37-2.59,3.76-6.27,4.65-9.87,.89-3.65,1.27-7.39,1.36-11.07,.13-7.38-.95-14.56-2.91-21.19-.48-1.66-1.05-3.28-1.64-4.87l-.47-1.18-.12-.29c-.06-.15-.11-.28-.16-.45l-.19-.62c-.24-.81-.51-1.61-.78-2.41-1.07-3.19-2.32-6.26-3.66-9.22-2.7-5.93-5.83-11.41-9.21-16.47-3.39-5.05-7.02-9.67-10.85-13.81-3.83-4.13-7.86-7.81-12.12-10.7-2.04-1.33-4.52-2.82-7.26-3.78-2.72-.96-5.77-1.3-8.32-.21-2.58,1.02-4.41,3.3-5.52,5.24-1.15,1.97-1.72,3.66-2.04,4.47Z"/></g></g><g><path d="M262.27,465.57c-.52-.36,.25-2.15,.09-2.96-.22-1.42-.11-2.82-.16-4.1-.08-2.22,.16-4.24,.69-6.04,1.8,.08,3.3,1.46,3.06,2.06-.86,2.35-1.09,4.03-1.2,5.66-.13,1.6-.19,3.08-.86,4.15-.26,.54-1.39,1.14-1.63,1.23Z"/><path d="M274,461.67c-.3-.14-.32-.59-.38-1.11-.04-.52-.09-1.1-.26-1.43-.6-1.14-.83-2.39-1.13-3.53-.54-1.98-.43-3.96-.03-5.43,.81-.26,1.74,0,2.32,.31,.61,.32,.94,.72,.87,.99-.65,2.15-.56,3.63-.3,5.05,.24,1.38,.6,2.66,.22,3.77-.07,.27-.33,.6-.61,.87-.29,.27-.59,.46-.7,.52Z"/></g><g id="default-2"><g><path class="tirli_body_003-cls-1 color-body" d="M140.36,463.37c.82-7.14,2.46-16.13,4.76-22.34,13.64-36.84-9.04-78.79,30.64-91.82,29.14-9.57,59.41,5.74,75.67,54.17,5.9,17.56,7.78,42.31,3.48,59.99"/><path d="M254.85,463.36c-.2-.66,.35-3.7,.75-8.24,.42-4.53,.66-10.54,.37-16.98-.26-6.44-1.11-13.28-2.31-19.43-1.18-6.16-2.86-11.57-4.33-15.31-2.63-6.66-5.67-13.43-9.42-19.89-3.75-6.45-8.15-12.67-13.45-17.95-5.27-5.29-11.42-9.64-18.15-12.25-6.71-2.64-13.92-3.49-20.8-2.7-3.01,.35-5.99,.98-8.91,1.86-2.93,.87-5.71,2.01-8.29,3.37-5.14,2.76-9.21,6.7-11.62,11.75-2.46,5.03-3.53,10.88-4.06,16.79-.54,5.93-.61,11.95-.79,17.89-.17,5.94-.44,11.83-1.11,17.54-.66,5.71-1.77,11.25-3.41,16.41-.21,.64-.41,1.29-.62,1.92-.22,.63-.47,1.25-.71,1.87-.46,1.19-.92,2.36-1.37,3.52-.85,2.25-1.55,4.55-2.18,6.82-1.25,4.54-2.2,8.96-2.96,13.14-.38-3.87-.45-8.67,.01-13.84,.23-2.59,.6-5.27,1.2-7.99,.3-1.3,.6-2.6,.91-3.91,.32-1.25,.48-2.55,.74-3.8,1.74-10.11,1.48-19.89,1.95-25.08,.43-5.22,.66-10.44,.98-15.64,.32-5.19,.77-10.39,1.72-15.49,.92-5.09,2.55-10.13,5.16-14.6,2.64-4.47,6.42-8.12,10.59-10.74,4.18-2.65,8.72-4.3,13.21-5.55,4.52-1.2,9.12-1.83,13.67-1.88,9.1-.09,17.87,2.46,25.23,6.71,7.39,4.26,13.46,10,18.37,16.17,2.46,3.09,4.71,6.27,6.67,9.53,1.03,1.61,1.9,3.28,2.84,4.9,.85,1.66,1.75,3.29,2.51,4.96,.39,.83,.79,1.66,1.18,2.48,.36,.83,.72,1.66,1.08,2.49,.74,1.65,1.37,3.32,2.02,4.97,.66,1.65,1.2,3.31,1.8,4.95,.55,1.65,1.1,3.32,1.55,4.98,1.85,6.64,2.97,13.19,3.54,19.55,.33,3.02,.45,6.61,.44,10.34-.08,3.74-.29,7.61-.75,11.22-.82,7.22-2.63,13.22-3.27,15.14Z"/></g><path class="tirli_body_003-cls-4" d="M145.12,441.03c13.64-36.84-9.04-78.79,30.64-91.82,29.14-9.57,59.41,5.74,75.67,54.17,5.9,17.56,7.78,42.31,3.48,59.99h0s-6.03,10.25-50.16,13c-42.25,2.63-64.39-13-64.39-13h0c.82-7.14,2.46-16.13,4.76-22.34Z"/></g><g><path class="tirli_body_003-cls-2" d="M211.86,397.17c-19.42-1.95-40.45,64.33-19.78,53.18,.61,.65-8.9,18.18,1.66,11.62,39.18,77.93,76.46-75.66,18.12-64.81Z"/><path d="M211.85,397.11c.42-.33,2.93-1.19,6.84-1.23,.98-.07,2.03,.11,3.16,.18,1.11,.22,2.3,.39,3.49,.81,2.4,.76,4.87,2.07,7.03,3.92,4.39,3.69,7.25,9.21,8.88,14.34,1.65,5.17,2.31,10.02,2.69,13.48,.69,6.12,.55,12.53-.27,19-.85,6.46-2.4,12.99-4.91,19.31-1.26,3.16-2.78,6.26-4.68,9.22-1.89,2.95-4.22,5.78-7.28,8.09-1.54,1.13-3.26,2.15-5.22,2.78-.95,.37-1.99,.53-3.01,.72-1.04,.09-2.09,.19-3.12,.08-1.05-.02-2.03-.28-3.03-.48-.49-.13-.95-.3-1.42-.46-.47-.16-.94-.32-1.37-.54-.87-.41-1.75-.82-2.51-1.33l-1.18-.74-1.07-.81c-3.6-2.76-6.33-6.07-8.69-9.46-1.15-1.71-2.28-3.42-3.26-5.18l-.87-1.49-.07-.14h0s.05-.02-.05,0l-.51,.12c-.22,.04-.42,.07-.65,.09-.49,.04-1.02,.06-1.73-.08-.68-.13-1.52-.45-2.23-1.03-.7-.56-1.2-1.29-1.48-1.89-.27-.6-.41-1.16-.47-1.58-.14-.9-.1-1.55-.05-2.13,.11-1.16,.34-2.05,.57-2.91,.48-1.7,1.05-3.2,1.61-4.64,.28-.7,.56-1.39,.83-2.08l.36-.92,.1-.3h0s-.06-.03,.06,0l.24,.06,.39,.11c.49,.13,1.12,.24,1.46,.33,.2,.04,.41,.07,.61,.09,.17,.03,.3,.05,.46,.05,.3,.01,.47,0,.53-.07l1.89,3.38c-.99,.49-1.97,.97-3.23,1.3-.29,.09-.64,.15-.97,.22l-.51,.09c-.19,.02-.41,.03-.62,.05-.82,.05-1.69-.01-2.5-.23-1.64-.4-3.08-1.42-4.08-2.76-1.06-1.46-1.39-2.64-1.68-3.78-.53-2.28-.48-4.23-.39-6.14,.12-1.89,.4-3.68,.74-5.42,1.42-6.93,3.82-13.13,6.61-18.82,2.83-5.67,6.1-10.82,10.05-15.09,1.97-2.12,4.15-4.01,6.6-5.41,2.42-1.39,5.31-2.22,8.02-1.74-1.84,.25-3.64,.99-5.18,2.14-1.57,1.11-2.93,2.6-4.18,4.2-2.49,3.25-4.52,7.12-6.26,10.97-3.49,7.74-5.63,15.4-7,19.28-.73,2.07-1.37,4.15-1.84,6.21-.47,2.06-.8,4.12-.83,6.02-.02,.94,.05,1.85,.22,2.56,.22,.79,.28,.99,.54,1.25,.13,.12,.29,.2,.46,.26,.09,.02,.17,.05,.28,.04h.15l.24-.02c.67-.08,1.51-.37,2.33-.76l1.77-.82,1.21,1.31c.21,.23,.4,.53,.52,.83,.14,.39,.11,.38,.14,.53,.02,.12,.03,.25,.03,.37,0,.11,0,.13,0,.2-.02,.26-.04,.38-.07,.5-.05,.23-.09,.37-.14,.51-.09,.26-.17,.48-.25,.68l-.47,1.14c-.31,.71-.61,1.41-.91,2.11-.59,1.38-1.13,2.74-1.53,4.05-.19,.65-.35,1.29-.4,1.8-.03,.24-.02,.48-.01,.52,0,0,.02,0-.02,.02-.09,.03-.17,.05-.26,.09-.18,.08-.27,.11-.38,.19-.19,.12-.2,.18-.17,.12,.02-.04,.14-.3,.15-.62,.01-.07,.02-.25,.02-.23,0,0,0,0,.01,0,.02,0,.03,0,.08,0,.03,0,.07,0,.13-.02,.06-.01,.08,0,.24-.07,.26-.09,.52-.2,.78-.33,1.03-.52,2.04-1.1,2.99-1.65,.08,.07,.17,.07,.24,.19l.19,.37,.37,.74,.74,1.46,.73,1.45c.23,.45,.52,1.04,.67,1.29,.73,1.27,1.38,2.59,2.17,3.8,1.47,2.5,3.17,4.78,4.97,6.89,1.81,2.1,3.85,3.93,6.09,5.23,2.23,1.32,4.7,1.93,7.08,1.72,2.4-.17,4.63-1.35,6.57-2.85,1.94-1.52,3.6-3.44,5.02-5.49,2.84-4.12,4.85-8.71,6.38-13.3,3.04-9.21,4.25-18.48,4.29-27.16-.03-8.67-1.29-16.94-4.55-23.74-1.02-2.07-2.41-4.41-4.32-6.47-1.89-2.06-4.33-3.79-6.94-4.84-2.6-1.08-5.3-1.47-7.49-1.62-2.2-.13-3.9,.04-4.75,.05Z"/></g><g id="default-3"><g><path class="tirli_body_003-cls-4" d="M167.78,376.34c-10.3-14.45-29.36,.87-37.54,18.78-6.98,14.79-8.46,31.59-9.28,44.45-2.31,39.89,20.52,65.91,32.51,34.13,7.51-26.87,8.29-57.68,15.74-71.27"/><path d="M169.26,402.45c.03,.3-.19,1.06-.59,2.18-.22,.55-.42,1.22-.64,1.97-.21,.76-.53,1.57-.75,2.5-1.06,3.67-2.06,8.64-2.95,14.02-.89,5.38-1.69,11.17-2.43,16.47-.72,5.3-1.4,10.11-1.83,13.57-.78,6.1-1.81,12.42-3.28,18.82-.19,.83-.38,1.66-.57,2.49-.11,.37-.2,.55-.27,.76l-.23,.6-.46,1.21c-.28,.81-.69,1.6-1.04,2.4-.34,.8-.78,1.59-1.22,2.38-.41,.8-.92,1.57-1.45,2.33-.48,.78-1.14,1.51-1.76,2.25-1.33,1.43-2.87,2.84-4.95,3.75-2.02,.94-4.49,1.33-6.79,.92-2.3-.41-4.24-1.46-5.9-2.65-3.26-2.45-5.5-5.51-7.29-8.62-3.56-6.27-5.45-12.94-6.67-19.46-1.02-5.72-1.44-11.49-1.35-17.19,.05-1.42,.09-2.87,.17-4.26,.1-1.38,.19-2.75,.29-4.13,.22-2.74,.46-5.48,.79-8.21,1.29-10.88,3.71-21.64,8.17-31.13,1.07-2.35,2.3-4.69,3.66-6.88,1.36-2.19,2.84-4.25,4.42-6.18,3.17-3.85,6.74-7.22,10.75-9.78,2.01-1.27,4.13-2.34,6.37-3.06,2.24-.71,4.63-1.04,6.96-.79,2.33,.22,4.54,1.13,6.26,2.43,1.74,1.29,3.04,2.89,4.05,4.51-1.35-1.14-2.91-2.29-4.73-3.05-1.81-.77-3.82-1.12-5.79-.86-3.95,.45-7.56,2.91-10.6,5.67-3.05,2.8-5.56,6.03-7.59,8.92-2,2.92-3.53,5.49-4.64,7.24-4.5,7.14-7.4,15.16-9.27,23.17-1.87,8.03-2.81,16.11-3.4,23.93-.54,7.74,0,15.33,1.51,22.43,.77,3.55,1.83,6.97,3.2,10.17,1.36,3.2,3.09,6.18,5.21,8.62,.5,.64,1.12,1.14,1.67,1.7,.61,.47,1.2,.98,1.85,1.33,1.27,.75,2.63,1.23,3.95,1.21,1.32-.02,2.59-.48,3.75-1.22l.86-.6,.79-.74,.39-.36,.36-.42,.71-.84c1.83-2.34,3.14-5.14,4.23-7.96l.38-.97,.26-1.04c.19-.75,.37-1.49,.55-2.24,.39-1.48,.7-2.97,1.02-4.44,2.58-11.78,4.12-22.98,6.1-33.42,.88-4.97,2.43-11.73,4.35-17.55,.5-1.45,.94-2.85,1.49-4.13,.26-.64,.51-1.26,.75-1.85,.24-.59,.53-1.13,.78-1.65,.25-.52,.49-1,.71-1.45,.22-.45,.49-.83,.7-1.19,.43-.7,.77-1.26,1-1.62Z"/></g></g><g><path d="M145.86,485.71c-.64,.13-1.36-1.93-1.91-2.66-1.02-1.28-1.52-3.01-1.86-4.58-.62-2.77,.07-5.68,1.46-7.23,1.48,1.08,2.53,2.47,2.24,2.94-1.25,1.94-1.16,3.88-.77,5.43,.4,1.58,1.1,2.81,1.22,4.05,.11,.56-.27,1.79-.37,2.06Z"/><path d="M135.3,486.41c-.29,.09-.74-.42-1.06-1.08-.35-.66-.61-1.44-.87-1.85-.95-1.46-1.32-3.32-1.57-4.97-.43-2.89,.1-5.85,1.67-7.65,.67,.7,1.28,1.28,1.7,1.86,.4,.56,.61,1.07,.44,1.32-1.25,2.11-1.25,4.17-.95,5.86,.3,1.72,.89,3.11,.97,4.37,.03,.31-.02,.73-.13,1.17-.07,.41-.16,.81-.2,.96Z"/></g></g><g id="tirli_face_lower_003"><defs/><g id="default"><g><g><g><path d="M222.34,226.15c45.58-135.1,192.78,23.03,35.38,66.46"/><path d="M257.72,292.58c.48-.31,3.19-1.22,7.19-2.51,1.98-.71,4.28-1.54,6.78-2.44,1.23-.49,2.52-1.01,3.84-1.54,.66-.26,1.33-.53,2.01-.8,.67-.3,1.34-.6,2.02-.9,5.48-2.32,11.09-5.33,16-8.39,1.21-.79,2.43-1.51,3.53-2.31,1.1-.8,2.16-1.57,3.17-2.3,1.01-.74,1.89-1.53,2.75-2.22,.85-.7,1.65-1.34,2.31-2.01,4.85-4.43,9.31-9.64,12.79-15.57,1.66-3,3.22-6.11,4.27-9.42l.43-1.23,.34-1.26c.21-.84,.47-1.67,.65-2.52l.49-2.56c.19-.85,.22-1.73,.34-2.59,.81-6.92-.06-14.02-2.19-20.59-1.1-3.28-2.47-6.45-4.12-9.44-1.68-2.97-3.6-5.77-5.7-8.36-3.76-4.45-8.08-8.45-12.96-11.5-2.4-1.59-4.98-2.85-7.58-4-1.33-.49-2.63-1.07-3.99-1.45-.68-.2-1.34-.44-2.02-.61l-2.05-.48c-5.47-1.22-11.08-1.22-16.41-.28-5.32,1.05-10.33,3.13-14.78,5.91-4.46,2.78-8.36,6.23-11.76,9.94-3.4,3.72-6.34,7.67-8.82,11.71-5.07,8.03-8.59,16.15-11.38,23.47,.4-1.72,.88-3.63,1.42-5.68,.57-2.04,1.31-4.19,2.04-6.43,1.66-4.41,3.58-9.13,6.03-13.46,4.62-8.83,11.28-15.9,15.27-18.91,4-3.08,8.35-5.61,12.92-7.37,4.57-1.77,9.34-2.77,14.06-2.98,9.48-.44,18.54,2.29,26.1,6.68,7.6,4.41,13.83,10.42,18.53,17.12,4.74,6.7,7.81,14.22,9.31,21.77,1.41,7.57,1.15,15.22-.72,22.21-.85,3.52-2.24,6.82-3.73,9.98-.84,1.53-1.58,3.11-2.54,4.53-.46,.73-.91,1.45-1.37,2.17-.5,.69-1,1.37-1.5,2.05-4.03,5.43-8.77,9.98-13.74,13.81-4.97,3.83-10.17,6.96-15.34,9.65-4.93,2.53-11.94,5.36-18.24,7.39-6.31,2-11.86,3.27-13.67,3.72Z"/></g><path class="tirli_face_lower_003-cls-5" d="M304.81,195.13c2.64,.76,4.86,2.31,6.72,4.15,1.85,1.86,3.32,4.05,4.39,6.43,1.07,2.38,1.72,4.97,1.79,7.66,.07,2.67-.39,5.47-1.86,8-1.74,2.97-5.55,3.97-8.52,2.23-.85-.5-1.54-1.16-2.04-1.93l-1.18-1.79c-.98-1.49-1.58-2.77-2.12-4.09-.55-1.31-.98-2.64-1.39-4.03-.4-1.39-.82-2.8-1.22-4.3-.39-1.52-.8-3.08-1.16-5.04l-.21-1.12c-.54-2.92,1.4-5.73,4.32-6.27,.84-.16,1.7-.1,2.48,.12Z"/></g><g><path class="tirli_face_lower_003-cls-2" d="M233,374.85c14.31,8,30.62,.31,37.73-17.56,60.51-28.51,20.41-120.75,2.61-136.55-42.92-40.85-115.85-41.2-169.64-8.43-65.45,48.25-45.27,132.81,31.3,155,9.08,16.46,34.9,17.85,43.99,8.54,10.32,10.23,43.07,14.67,54.01-1Z"/><path d="M233.05,374.88c-.31,.61-1.39,2.59-4.03,4.72-2.58,2.19-6.77,4.3-12.09,5.43-5.31,1.13-11.7,1.36-18.5,.28-3.4-.53-6.9-1.41-10.38-2.71-1.74-.67-3.47-1.46-5.15-2.41-.42-.25-.84-.48-1.25-.75l-1.16-.78-.78-.6c-.25-.2-.49-.47-.73-.62-.5,.49-.99,.93-1.6,1.33-.44,.31-.89,.59-1.35,.84-.46,.28-.93,.5-1.41,.73-1.92,.9-3.94,1.53-6.01,1.95-4.13,.83-8.41,.84-12.57,.19-4.16-.65-8.23-1.98-11.88-4.07-3.64-2.08-6.89-4.88-9.21-8.29l-.22-.31-.11-.16-.07-.11-.26-.43-.26-.42c-.09-.14-.26-.11-.39-.18-.8-.25-1.59-.49-2.37-.74-1.81-.59-3.63-1.07-5.34-1.78-1.73-.66-3.42-1.3-5.09-1.93-1.62-.73-3.21-1.44-4.76-2.14-.77-.36-1.55-.67-2.28-1.06-.73-.39-1.45-.77-2.16-1.14-1.41-.77-2.82-1.44-4.11-2.21-1.29-.78-2.53-1.54-3.72-2.26-.59-.37-1.19-.7-1.74-1.08-.55-.38-1.08-.75-1.6-1.12-7.3-4.96-14.11-11.02-19.95-18.12-5.81-7.1-10.73-15.21-14.01-24.1-3.3-8.88-5.1-18.44-5.16-28.11,.01-9.67,1.84-19.38,5.24-28.52l.62-1.72,.74-1.67,1.48-3.34c.23-.56,.51-1.11,.8-1.64l.86-1.61,1.72-3.22c1.3-2.06,2.56-4.14,3.91-6.16l2.15-2.94c.74-.97,1.4-1.99,2.21-2.89l2.35-2.78c.79-.92,1.54-1.87,2.41-2.72l2.53-2.6c.85-.86,1.66-1.76,2.58-2.54l2.68-2.43c.91-.79,1.76-1.65,2.72-2.37l2.82-2.24,1.41-1.12,.7-.56c.12-.09,.27-.23,.52-.39l.49-.29c16.28-9.9,34.08-16.84,52.05-20.58,15.71-3.31,31.89-4.34,47.78-2.79,15.87,1.54,31.47,5.7,45.61,12.64,7.07,3.46,13.75,7.63,19.88,12.42,1.5,1.24,3.03,2.45,4.49,3.7,1.42,1.3,2.85,2.6,4.26,3.89,3.07,2.93,5.35,6.14,7.49,9.35,4.2,6.46,7.55,13.18,10.47,20,2.89,6.82,5.29,13.75,7.18,20.75,3.75,13.96,5.62,28.26,4.16,42.13-.74,6.91-2.35,13.69-5.04,19.95-2.68,6.26-6.45,11.96-11.07,16.62-2.3,2.34-4.79,4.43-7.38,6.29-2.6,1.85-5.34,3.42-8.11,4.82l-1.03,.49-.45,.2-.11,.05-.06,.11-.11,.22-.34,.72c-.61,1.43-1.43,2.76-2.19,4.09-1.64,2.6-3.47,5.08-5.68,7.17-1.03,1.11-2.26,2-3.42,2.95-.61,.43-1.25,.83-1.87,1.24-.32,.2-.62,.42-.95,.59l-.99,.51c-.67,.32-1.3,.72-2,.96-.69,.26-1.38,.52-2.07,.78-.69,.23-1.42,.37-2.12,.56-.35,.08-.7,.19-1.06,.25l-1.08,.14c-5.77,.89-11.46-.71-16.04-3.36l1.7,.66c.58,.21,1.13,.48,1.75,.61,1.22,.31,2.43,.7,3.74,.82,.65,.07,1.28,.24,1.95,.22,.66,.01,1.32,.03,2,.04,.67,.02,1.34-.11,2.02-.16l1.01-.1c.34-.06,.67-.14,1.01-.22,2.7-.49,5.34-1.6,7.76-3.08,1.25-.69,2.35-1.63,3.5-2.51,1.05-1.01,2.16-1.96,3.08-3.12,1.01-1.07,1.82-2.33,2.7-3.52,.4-.63,.77-1.29,1.15-1.93,.19-.32,.39-.64,.57-.97l.49-1.02c.32-.68,.67-1.35,.97-2.04l.41-1.06,.21-.53,.31-.77,.33-.81,.17-.41c.07-.12,.24-.15,.35-.23l1.54-.83c.67-.38,1.36-.74,2-1.16,5.29-3.19,10.02-7.24,13.8-11.9,3.79-4.66,6.54-9.94,8.4-15.29,1.88-5.35,2.81-10.78,3.28-15.86,.43-5.1,.39-9.87,.12-14.11-.26-4.24-.7-7.95-1.1-10.97-1.64-12.18-5.05-24.05-9.59-35.21-2.29-5.57-4.87-10.99-7.84-16.08-1.49-2.54-3.06-5.02-4.79-7.3-.85-1.15-1.76-2.24-2.69-3.23-.92-.97-2.04-1.96-3.11-2.97-8.52-8.02-18.33-14.26-28.65-19.01-5.18-2.33-10.49-4.28-15.86-5.9-5.39-1.56-10.84-2.75-16.3-3.66-21.9-3.48-43.82-1.56-63.88,3.96-5.04,1.34-9.93,3.04-14.73,4.83-2.37,.97-4.77,1.86-7.08,2.93-1.16,.52-2.33,1.02-3.47,1.56-1.14,.56-2.27,1.11-3.41,1.67-1.14,.54-2.25,1.12-3.36,1.73-1.11,.59-2.21,1.19-3.31,1.78-1.08,.63-2.16,1.26-3.23,1.89l-1.61,.94c-.12,.07-.17,.09-.28,.19l-.35,.28-.73,.58c-3.93,3.01-7.65,6.21-11.09,9.64-6.88,6.85-12.66,14.55-16.99,22.84-1.18,2.03-2,4.21-2.97,6.31-.51,1.04-.85,2.15-1.25,3.23-.39,1.08-.78,2.17-1.16,3.25-.33,1.1-.61,2.21-.92,3.31l-.46,1.65-.23,.82-.16,.84c-.22,1.11-.44,2.23-.66,3.34-.1,.56-.24,1.11-.31,1.67l-.2,1.68c-1.15,8.93-.76,17.9,1.16,26.38,1.95,8.48,5.29,16.46,9.66,23.64,4.37,7.19,9.76,13.57,15.78,19.04,6.02,5.48,12.67,10.06,19.61,13.8,.87,.47,1.73,.94,2.59,1.41,.88,.44,1.78,.83,2.66,1.25,1.79,.8,3.51,1.71,5.34,2.37,1.81,.7,3.6,1.45,5.41,2.1,1.93,.63,3.85,1.25,5.76,1.88l1.08,.35,.27,.09c.1,.02,.18,.05,.21,.15l.27,.45,.53,.89,.26,.44c.09,.15,.18,.31,.23,.37l.75,1.09c.26,.35,.55,.69,.82,1.03,1.13,1.35,2.42,2.56,3.81,3.64,2.8,2.15,6.05,3.7,9.43,4.73,3.6,1.05,7.79,1.66,12.27,1.36,2.23-.17,4.53-.57,6.78-1.31,1.11-.4,2.22-.84,3.25-1.44,.27-.13,.51-.31,.76-.46,.09-.05,.38-.24,.54-.36,.19-.14,.37-.31,.56-.46,.76-.61,1.47-1.26,2.18-1.91,.81,.7,1.61,1.51,2.46,2.2l.63,.54,.5,.36c.3,.21,.58,.43,.9,.63,1.23,.81,2.54,1.52,3.9,2.18,2.73,1.28,5.62,2.27,8.54,3.02,5.85,1.48,11.78,1.97,17.11,1.57,5.33-.38,10.04-1.77,13.47-3.66,1.73-.94,3.09-2.02,4.2-2.98,.51-.52,1.01-.98,1.39-1.42,.38-.46,.71-.86,.99-1.19Z"/></g><g><g><path class="tirli_face_lower_003-cls-2" d="M129.67,238.42c-39.35-131.79-193.28,22.45-35.38,66.46"/><path d="M94.27,304.94c-.6,.15-3.37-.43-7.42-1.46-2-.59-4.33-1.29-6.86-2.09-1.25-.45-2.55-.92-3.88-1.4-1.34-.48-2.71-.97-4.08-1.56-5.55-2.16-11.25-5.04-16.31-7.95-5.09-2.88-9.33-6.12-12.38-8.42-5.3-4.17-10.28-9.32-14.24-15.48-.53-.75-.96-1.56-1.41-2.36-.44-.81-.92-1.6-1.32-2.44-.77-1.69-1.6-3.36-2.2-5.15-.7-1.74-1.16-3.58-1.67-5.4-.37-1.85-.82-3.71-.99-5.61-.28-1.89-.31-3.8-.39-5.7,.06-1.9,.07-3.82,.33-5.71,.41-3.79,1.2-7.53,2.42-11.1,2.36-7.18,6.15-13.72,10.74-19.33,4.01-4.91,8.8-9.16,14.07-12.62,1.36-.81,2.66-1.69,4.08-2.4l2.09-1.1,2.15-.97c.71-.34,1.44-.63,2.18-.89l2.21-.82,2.25-.68,1.13-.33,1.15-.26c12.17-3.06,25.4-.68,35.08,5.69,4.9,3.1,9.02,6.95,12.45,11.04,.83,1.05,1.7,2.05,2.46,3.11,.75,1.07,1.49,2.13,2.22,3.18,1.33,2.18,2.68,4.29,3.75,6.49,4.53,8.68,7.16,17.22,8.89,24.86-.93-1.55-1.91-3.28-2.91-5.14-1.04-1.83-2.16-3.78-3.31-5.8-.6-.99-1.21-1.99-1.83-3-.3-.51-.61-1.02-.91-1.53l-.98-1.5c-.65-1-1.3-2-1.95-3-.69-.96-1.38-1.93-2.07-2.88-5.47-7.66-11.71-13.43-15.03-16.3-3.28-3.01-6.99-5.44-10.96-7.16-3.97-1.73-8.21-2.71-12.46-2.98-8.54-.55-16.99,1.81-24.18,5.78-7.24,3.96-13.27,9.57-17.87,15.83-4.63,6.26-7.69,13.33-9.13,20.42-.76,3.55-.98,7.12-.88,10.61,0,1.75,.26,3.46,.44,5.16,.34,1.68,.58,3.36,1.08,4.98,1.7,6.53,4.95,12.32,8.77,17.32,3.85,5.02,8.37,9.24,13.09,12.86,4.73,3.62,9.67,6.66,14.55,9.41,4.68,2.54,11.22,5.82,17.14,8.46,5.93,2.61,11.2,4.58,12.91,5.3Z"/></g><g><g><path class="tirli_face_lower_003-cls-3" d="M37.62,236.27c-9.18,26.06,40.05,56.52,62.82,53.96-18.87-10.16-14.7-30.65,7.18-28.54-9.47-15.01-38.67-41.62-70-25.42Z"/><path d="M37.6,236.24c.34-.3,2.37-1.55,5.63-2.86,3.26-1.27,7.81-2.51,12.81-2.72,2.5-.17,5.09-.01,7.64,.27,2.55,.31,5.05,.87,7.41,1.52,4.69,1.36,8.72,3.24,11.52,4.69,5.01,2.58,9.82,5.96,14.31,9.93,2.24,1.99,4.41,4.13,6.45,6.44,1.02,1.15,2.02,2.34,2.97,3.58,.16,.21,.68,.86,1.03,1.4l1.15,1.67c.75,1.1,1.57,2.31,2.25,3.4-1.33-.07-2.68-.18-4.02-.23l-2.02-.06-.99-.03-.51,.04c-1.36,.07-2.68,.29-3.97,.6-1.27,.36-2.52,.79-3.63,1.42-1.11,.63-2.11,1.41-2.93,2.32-1.67,1.82-2.47,4.25-2.35,6.69,.05,1.22,.3,2.44,.74,3.61,.45,1.17,1.05,2.28,1.76,3.33,.99,1.42,2.21,2.71,3.53,3.83,.54,.51,1.42,1.14,2.3,1.68,.89,.57,1.69,1.11,2.64,1.68,1.97,1.13,3.91,2.25,5.78,3.33-1.86,.13-3.71,.25-5.56,.37-1.9,.08-3.67,.31-5.83,.09l-1.55-.09c-.51-.03-1.11-.06-1.3-.11l-1.73-.26c-1.15-.17-2.27-.45-3.39-.68-4.46-1.08-8.7-2.61-12.73-4.4-8.06-3.6-15.32-8.2-21.57-13.41-6.2-5.24-11.45-11.18-14.71-17.73-1.61-3.26-2.68-6.69-2.97-10.06-.3-3.37,.22-6.63,1.32-9.43-.59,2.96-.74,6.64,.29,10.3,.97,3.67,2.86,7.26,5.13,10.43,4.56,6.36,10.35,11.09,13.26,13.67,6.83,5.95,14.43,10.65,22.18,14.06,3.88,1.69,7.82,3.06,11.77,3.95,.98,.24,1.97,.41,2.96,.57l.74,.12c.25,.04,.32,.04,.49,.06l.89,.1c.59,.04,1.15,.07,1.75,.06l.89-.04h.22s-.09-.07-.13-.1l-.35-.21c-.51-.29-.99-.63-1.48-.98l-.72-.56-.96-.84c-1.54-1.43-2.9-3.04-3.97-4.82-1.07-1.78-1.86-3.74-2.16-5.78-.32-2.04-.17-4.15,.48-6.09,.68-1.93,1.86-3.65,3.32-4.99,1.47-1.35,3.2-2.32,4.99-2.98,1.79-.66,3.65-1.02,5.48-1.21l1.37-.1c.28-.02,.32-.01,.47-.02h.38c.51-.02,.98,.03,1.46,.05,.15,.04-.01-.1-.03-.15l-.15-.22-.3-.44-.61-.84c-.34-.44-.68-.88-1.01-1.32-.39-.47-.77-.95-1.16-1.42-1.56-1.86-3.2-3.61-4.88-5.27-3.36-3.31-6.91-6.2-10.55-8.7-7.3-4.97-15.03-8.32-22.71-9.6-4.35-.79-10.47-1.01-15.76,.02-.66,.13-1.31,.26-1.94,.38-.63,.14-1.23,.32-1.82,.47-1.19,.28-2.26,.67-3.22,1-.97,.3-1.8,.66-2.48,.95-.69,.28-1.23,.5-1.58,.65Z"/></g><g><path d="M54.9,215.96c-8.88,4.42-13.82,11.47-16.21,19.94,44.82-5.56,64.73,18.82,74.77,34.64,1.23-35.85-32.61-67.5-58.56-54.58Z"/><path d="M54.89,215.93c.33-.27,2.26-1.46,5.45-2.4,3.18-.95,7.66-1.4,12.34-.68,4.67,.77,9.47,2.57,13.42,4.92,3.99,2.31,7.23,4.97,9.45,6.96,3.9,3.54,7.48,7.74,10.42,12.5,1.51,2.35,2.8,4.88,4,7.46,.54,1.32,1.15,2.61,1.61,3.97l.72,2.02,.62,2.06c.45,1.37,.71,2.79,1.07,4.18,.25,1.42,.57,2.83,.74,4.26l.26,2.15c.12,1.2,.1,2.48,.16,3.73,.11,2.51,.1,5.05,.09,7.6v1.43l-.26-.35-1.02-1.4-2.05-2.82c-1.39-2.02-2.78-4.03-4.17-6.03-.83-1.07-1.67-2.14-2.49-3.2-.86-1-1.72-2-2.58-2.99-3.1-3.36-6.41-6.49-10.01-9.19-3.64-2.63-7.41-5.06-11.45-6.83-7.99-3.73-16.54-5.63-24.79-6.2-2.06-.26-4.11-.2-6.13-.23-1.01-.01-2.02-.02-3.02-.03-1,0-1.99,.12-2.97,.17-1.1,.07-2.2,.15-3.28,.22-.85,.06-1.72,.13-2.52,.17l-1.21,.07c-.2,0-.41,.03-.59,.03l.19-.6c.25-.78,.5-1.56,.75-2.34,.26-.73,.51-1.45,.76-2.17,.39-.94,.77-1.81,1.22-2.68,1.74-3.46,4.04-6.48,6.67-8.84,2.6-2.39,5.51-4.1,8.33-5.38-2.29,1.63-4.99,3.74-7.3,6.49-2.34,2.72-4.26,6.02-5.51,9.44-.17,.42-.31,.85-.45,1.28l-.21,.64c-.03,.12-.03,.15-.04,.23-.04,.28-.05,.4,.02,.43,.18-.06,.3-.1,.36-.14h.02l.08-.02,.32-.04c.21-.03,.43-.05,.64-.08,.42-.05,.83-.1,1.24-.15,3.24-.48,6.05-.35,7.97-.33,7.72,.37,15.2,1.49,22.11,3.77,6.9,2.28,13.21,5.53,18.72,9.5,5.51,3.97,10.22,8.61,14.24,13.51,1.02,1.22,1.94,2.49,2.9,3.72,.32,.45,.64,.9,.95,1.34,.29,.42,.64,.89,.88,1.26l.76,1.15,.19,.28,.09,.14v-.87c.02-.92-.04-1.83-.1-2.71-.02-.23-.02-.43-.05-.67l-.13-1.05c-.09-.71-.16-1.43-.27-2.13-.27-1.4-.46-2.81-.82-4.17-.59-2.75-1.49-5.37-2.42-7.92-1.99-5.05-4.53-9.69-7.48-13.8-2.98-4.1-6.33-7.7-9.93-10.73-3.63-3-7.51-5.43-11.51-7.19-1.93-.75-4.22-1.68-6.73-2.19-2.5-.54-5.17-.91-7.68-.8-2.51,.09-4.86,.43-6.69,.98-.46,.13-.9,.24-1.3,.35-.4,.13-.75,.28-1.08,.4-.66,.24-1.17,.43-1.51,.56Z"/></g></g><path class="tirli_face_lower_003-cls-4" d="M92.78,204.02c2.47-.37,4.96-.02,7.3,.69,2.34,.73,4.53,1.87,6.51,3.31,1.97,1.45,3.73,3.22,5.1,5.31,1.36,2.08,2.4,4.48,2.62,7.11,.2,2.47-1.64,4.63-4.1,4.83-1.17,.1-2.27-.27-3.13-.94l-.68-.54c-1.38-1.09-2.52-2.14-3.69-3.21l-3.52-3.19c-1.2-1.06-2.44-2.09-3.74-3.13l-4.14-3.28-.32-.26c-1.64-1.3-1.91-3.68-.61-5.32,.62-.78,1.49-1.25,2.41-1.39Z"/></g></g><g><g><g><path class="tirli_face_lower_003-cls-1" d="M240.78,355.38c-18.44,.9-17.32-8.54-20.39-21.89l29.92-.65c1.66,7.42,7.85,21.69-9.53,22.54Z"/><path d="M240.78,355.35c.18-.19,1.19-.31,2.63-.63,1.42-.33,3.34-.79,5-1.91,.83-.54,1.58-1.24,2.13-2.06,.56-.82,.92-1.75,1.12-2.68,.38-1.88,.19-3.69-.04-4.95-.3-1.55-.72-3.12-1.21-4.76-.25-.82-.51-1.66-.77-2.51-.12-.39-.24-.78-.36-1.17l-.13-.32c.12,.05-2.14,.15-3.66,.23-1.64,.07-3.3,.15-4.95,.22-3.31,.13-6.62,.26-9.82,.38-2.14,.07-4.27,.13-6.39,.2l-1.46,.04h0s0,.07,0,.1c.38,2,.75,3.98,1.11,5.92,.38,1.93,.77,3.79,1.39,5.42,.62,1.62,1.38,3.09,2.51,4.14,.25,.3,.6,.48,.89,.74l.45,.36,.52,.28c.34,.19,.69,.37,1.03,.56,.37,.14,.74,.27,1.11,.41,2.99,1.04,6.13,1.23,8.88,1.44-2.42,.87-6.15,1.71-9.93,1.06-1.89-.25-3.71-1.13-5.13-2.14-1.37-1.1-2.25-2.33-2.69-3.21-1.16-2.39-1.63-4.75-2.01-6.97-.38-2.23-.65-4.38-.98-6.45l-.12-.78-.2-1.08c-.14-.75-.29-1.5-.43-2.24l-.05-.27c0-.08-.09-.22,.06-.18h1.74c.7,0,1.4,0,2.09,0,2.03,0,4.01-.01,5.94-.02,3.88-.04,7.58-.14,11.12-.26,3.81-.14,7.44-.27,10.9-.4,.16,.62,.31,1.24,.47,1.85l.2,.75,.17,.6c.23,.81,.45,1.61,.67,2.39,.42,1.59,.8,3.16,1.03,4.74,.22,1.58,.33,3.16,.14,4.74-.19,1.56-.66,3.13-1.56,4.43-.59,.93-1.56,1.86-2.7,2.51-1.14,.67-2.43,1.05-3.62,1.27-2.39,.45-4.44,.24-5.1,.21Z"/></g><path d="M238.74,347.27c-.22-.23-.12-.66,.02-1.08,.1-.44,.24-.91,.12-1.21-.33-1.02-.54-1.79-.92-2.55-.64-1.26-1.2-2.81-1.3-4.41,1.49-.9,3.3-.6,3.32-.03,.13,2.18,.57,3.5,.87,4.9,.29,1.34,.33,2.83-.45,3.7-.28,.48-1.46,.69-1.66,.69Z"/></g><path class="tirli_face_lower_003-cls-5" d="M193.92,327.92c21.79,20.72,123.2,10.43,65.49-22.05-25.35-47.35-92.67-2.75-65.49,22.05Z"/><path d="M188.59,307.18c.21,.42-.34,1.95-.5,4.23-.23,2.26,.11,5.27,1.51,8.11,1.36,2.85,3.7,5.44,6.16,7.39,2.45,1.97,5.01,3.34,6.89,4.16,6.68,2.85,14.35,4.59,22.15,5.21,7.8,.62,15.74,.08,23.02-1.49,6.37-1.36,12.52-3.43,18.2-6.13,2.84-1.34,5.57-2.84,8.17-4.45l.87-.54c.05-.02,.06-.01,.09-.03,.06-.02,.13-.03,.21-.07l.13-.05,.07-.03s0-.02,0-.03c-.02-.05-.05-.11-.09-.17-.04-.07-.09-.15-.16-.24-.55-.47-1.1-.94-1.65-1.4-1.15-.98-2.28-1.97-3.39-2.96-2.21-1.98-4.32-3.97-6.26-6.02-1.93-2.05-3.69-4.2-5.12-6.42-1.43-2.21-2.51-4.48-3.3-6.64,1.67,1.45,3.58,3.19,5.7,4.79,2.12,1.61,4.42,3.14,6.71,4.59,4.58,2.89,8.96,5.67,10.92,7.58l.75,.71,1.48,1.28c1.01,.85,1.94,1.67,2.83,2.46,.88,.78,1.76,1.55,2.63,2.32,.1,.09,.23,.19,.3,.28l-.4,.27-.79,.54-1.54,1.06c-1.01,.71-2.01,1.36-2.97,2.01l-1.43,.96c-.23,.16-.48,.32-.71,.46l-.35,.21-.23,.13c-1.19,.69-2.39,1.32-3.58,1.95-4.8,2.45-9.6,4.43-14.37,5.94-9.54,3.04-18.86,4.4-27.63,4.49-8.77,.08-17.03-1.1-24.42-3.55-3.69-1.24-7.17-2.79-10.31-4.75-3.13-1.95-5.96-4.29-8.14-7.1-1.06-1.31-2.13-3.04-2.88-5.01-.77-1.96-1.13-4.17-1.07-6.18,.05-2.02,.53-3.82,1.08-5.16,.54-1.35,1.13-2.27,1.41-2.72Z"/><g><path class="tirli_face_lower_003-cls-3" d="M261.24,325.96c1.32,9.7,26.02,6.97,25.48-2.9-1.32-9.7-26.02-6.97-25.48,2.9Z"/><path d="M261.21,325.97c-.13-.12-.34-.84-.15-1.93,.18-1.09,.92-2.42,2.03-3.49,2.23-2.19,5.55-3.31,7.35-3.89,3.21-1.03,6.92-1.46,10.71-.63,1.88,.42,3.84,1.22,5.44,2.8,.79,.8,1.39,1.84,1.75,2.93l.2,.85c.04,.15,.07,.37,.06,.53v.45c.02,.57-.09,1.12-.19,1.68-.48,1.94-1.7,3.49-3.01,4.59-1.33,1.11-2.78,1.87-4.24,2.44-2.93,1.12-5.91,1.52-8.74,1.47-2.83-.1-5.56-.64-7.85-1.93-1.14-.65-2.15-1.5-2.84-2.53-.7-1.03-1.02-2.21-1.04-3.26,.55,.88,1.3,1.74,2.22,2.3,.91,.57,1.95,.9,2.98,1.11,2.06,.42,4.07,.36,5.12,.57,2.13,.4,4.33,.4,6.41,.07,1.04-.16,2.05-.41,3-.76,.96-.33,1.86-.77,2.65-1.31,1.62-1.04,2.77-2.6,2.88-4.29l.02-.6-.13-.58c-.13-.39-.26-.78-.49-1.12-.42-.69-1.01-1.28-1.72-1.71-1.39-.9-3.06-1.31-4.66-1.53-1.62-.2-3.22-.17-4.74-.02-3.05,.32-5.84,1.11-8.16,2.27-1.08,.57-2.55,1.41-3.5,2.55-.21,.29-.46,.57-.61,.88-.08,.15-.16,.3-.24,.44l-.16,.43c-.23,.55-.24,1.01-.32,1.24Z"/></g><g><path class="tirli_face_lower_003-cls-1" d="M271.06,323.89c.34,3.68,10.75,3.84,11.22-1.28-.34-3.68-10.75-3.84-11.22,1.28Z"/><path d="M271.03,323.89c-.13-.07-.25-.41-.18-.91,.06-.5,.34-1.16,.82-1.71,.96-1.15,2.51-1.73,3.32-2.08,1.48-.63,3.23-.86,5.07-.52,.92,.21,1.9,.51,2.84,1.37,.5,.47,.94,1.11,1.13,1.8,.08,.35,.18,.7,.11,1.06-.02,.35-.07,.74-.17,1.04-.26,.97-.84,1.85-1.52,2.48-.68,.63-1.44,1.06-2.18,1.35-1.49,.58-2.96,.68-4.31,.56-1.35-.13-2.63-.54-3.71-1.24-.53-.36-1.02-.81-1.36-1.36-.35-.55-.49-1.22-.4-1.77,.46,.46,1.02,.71,1.53,.76,.51,.06,.98,0,1.42-.05,.88-.12,1.63-.25,2.03-.07,1.6,.71,3.57,.66,4.83-.14,.32-.19,.57-.45,.77-.73,.2-.26,.33-.64,.38-.86,.09-.26-.04-.53-.17-.74-.13-.2-.37-.39-.65-.55-1.16-.64-2.64-.67-3.87-.55-1.26,.14-2.37,.46-3.28,.87-.42,.22-1.02,.45-1.52,.86-.51,.39-.82,.96-.95,1.15Z"/></g><path class="tirli_face_lower_003-cls-4" d="M249.22,314.9c-2.61,.43-5.17,0-7.53-.84-2.36-.86-4.5-2.17-6.39-3.79-1.87-1.63-3.47-3.61-4.59-5.91-1.11-2.28-1.83-4.9-1.54-7.68,.36-3.43,3.44-5.91,6.87-5.55,.86,.09,1.66,.35,2.36,.74l2.02,1.13c1.49,.84,2.53,1.65,3.53,2.54,1,.88,1.88,1.82,2.75,2.84,.87,1.02,1.75,2.06,2.64,3.21,.89,1.17,1.81,2.37,2.84,3.96l.69,1.07c1.62,2.51,.9,5.86-1.61,7.49-.63,.41-1.35,.67-2.05,.79Z"/></g></g></g><g id="tirli_face_upper_003"><defs/><g><g><path class="tirli_face_upper_003-cls-1" d="M161.25,261.18c25.35-2.44,32.81,33.91,10.94,40.52-34.73,10.12-39.06-39.15-10.94-40.52Z"/><path d="M161.25,261.21c-.13,.09-.55,.2-1.18,.33-.32,.06-.69,.12-1.11,.2-.42,.07-.87,.24-1.37,.36-1.98,.52-4.57,1.51-6.81,3.34-2.26,1.79-4.1,4.34-5.2,6.91-1.12,2.57-1.55,5.11-1.64,6.91-.18,3.19,.32,6.5,1.45,9.6,1.1,3.12,3.04,5.94,5.5,8.1,2.46,2.19,5.6,3.46,8.82,3.97,3.24,.5,6.58,.19,9.74-.55l2.06-.53c.65-.22,1.27-.46,1.91-.69,.59-.31,1.22-.57,1.79-.91,.54-.38,1.15-.66,1.64-1.11,2.07-1.61,3.76-3.69,4.77-6.1,1.04-2.39,1.55-5.01,1.57-7.61,0-2.6-.45-5.17-1.26-7.55-1.62-4.78-4.78-8.75-8.61-11.09-1.91-1.18-3.96-1.97-6-2.46-2.04-.52-4.08-.57-6-.59,1.67-.5,3.86-1.03,6.28-.9,2.42,.08,5.06,.68,7.42,1.82,2.38,1.12,4.44,2.74,5.97,4.38,1.53,1.66,2.52,3.31,3.07,4.5,2.18,4.81,2.85,9.97,2.13,14.76-.7,4.78-2.96,9.23-6.42,12.2-1.72,1.48-3.68,2.59-5.69,3.38-.51,.18-1.02,.36-1.53,.53-.51,.15-1.03,.25-1.54,.38-1.02,.25-2.03,.51-3.06,.62-4.07,.65-8.21,.5-11.97-.71-3.77-1.2-6.96-3.61-9.29-6.48-2.32-2.9-3.72-6.3-4.44-9.67-1.44-6.76,.09-13.65,3.77-18.49,.22-.29,.44-.59,.69-.9,.27-.28,.55-.57,.84-.87,.55-.62,1.26-1.14,1.96-1.69,.34-.29,.72-.52,1.11-.74l1.16-.68c.81-.37,1.62-.73,2.42-1.01,.82-.22,1.59-.48,2.34-.61,.75-.11,1.44-.21,2.07-.3,1.25-.05,2.2-.05,2.66-.05Z"/></g><path class="tirli_face_upper_003-cls-3" d="M160.67,263.84c20.66-6.3,32.33,26.06,13.39,33.4-24.05,11.02-34.73-28.09-13.39-33.4Z"/><path d="M167,265.91c16.78-2.01,23.29,23.04,7.82,28.24-23.72,7.58-27.92-26.97-7.82-28.24Z"/><g><path class="tirli_face_upper_003-cls-2" d="M161.31,277.54c-.27,6.45,18.72,8.31,22.12,1.37,4.36-8.31-21.74-10.01-22.12-1.37Z"/><path d="M161.28,277.53c-.12-.11-.26-.76,.04-1.68,.31-.92,1.16-1.95,2.27-2.66,2.24-1.48,5.16-1.96,6.75-2.28,2.83-.54,5.97-.57,9.15,.23,1.58,.43,3.22,1.01,4.7,2.41,.72,.71,1.38,1.72,1.56,2.93,.16,1.2-.14,2.32-.54,3.17-.68,1.55-1.97,2.75-3.24,3.52-1.29,.79-2.64,1.24-3.96,1.55-2.64,.6-5.21,.58-7.6,.23-2.39-.35-4.63-1.05-6.53-2.22-.94-.59-1.8-1.31-2.42-2.22-.63-.9-.91-2.04-.72-3,.37,.9,1.07,1.62,1.88,2.03,.81,.43,1.71,.66,2.6,.84,1.79,.35,3.5,.45,4.38,.73,3.53,1.1,7.42,1.16,10.4-.16,1.5-.64,2.62-1.79,3.02-3.14,.45-1.3-.45-2.43-1.63-3.17-1.22-.71-2.62-1.13-3.98-1.38-1.37-.25-2.74-.35-4.05-.36-2.62,0-5.07,.29-7.19,.9-.99,.32-2.38,.71-3.35,1.48-.24,.19-.48,.38-.65,.61-.21,.21-.35,.43-.47,.65-.28,.42-.33,.82-.43,1Z"/></g></g><g><g><path class="tirli_face_upper_003-cls-1" d="M256.11,274.3c-5.37-24.14,15.11-31.87,22.4-7.36,9.61,28.48-17.39,31.42-22.4,7.36Z"/><path d="M256.14,274.3c.44,.31,1.24,4.18,3.59,7.94,1.15,1.87,2.7,3.66,4.39,4.9,1.68,1.26,3.46,1.94,4.74,2.12,2.26,.42,4.63-.12,6.39-1.5,.87-.71,1.57-1.63,2.13-2.64,.56-1.02,.89-2.2,1.15-3.38,.45-2.41,.32-5-.09-7.51-.38-2.52-1.2-4.99-2.01-7.4-.68-2.12-1.53-4.07-2.56-5.9-1.02-1.82-2.24-3.47-3.67-4.75-1.41-1.3-3.06-2.1-4.68-2.29-.81-.06-1.61,.03-2.38,.25-.76,.27-1.48,.66-2.14,1.18-1.31,1.05-2.31,2.57-3.02,4.17-.71,1.62-1.13,3.35-1.4,5.05-.46,3.43-.31,6.73,.06,9.65-1.39-2.37-2.64-6.26-2.73-10.22-.04-1.97,.25-3.93,.77-5.6,.5-1.68,1.32-3.02,2-3.84,1.39-1.64,3.22-2.97,5.29-3.61,2.08-.61,4.28-.43,6.11,.28,1.85,.71,3.37,1.87,4.62,3.16,1.24,1.3,2.27,2.71,3.11,4.17,1.71,2.92,2.75,6.01,3.64,8.96,.94,2.94,1.62,5.92,1.83,8.87,.21,2.94-.05,5.9-1.11,8.59-1.04,2.68-3.15,4.99-5.82,6.01-1.33,.49-2.72,.68-4.07,.64-1.34-.1-2.64-.39-3.82-.88-2.38-.96-4.29-2.58-5.77-4.33-1.46-1.65-2.85-4.32-3.56-6.77-.2-.61-.36-1.2-.47-1.76-.11-.56-.25-1.08-.31-1.55-.12-.94-.21-1.65-.25-2.01Z"/></g><path class="tirli_face_upper_003-cls-3" d="M270.34,285.07c-12.96,.51-17.2-32.14-1.45-29.45,11.85,4.19,13.15,30.42,1.45,29.45Z"/><path d="M262.95,272.21c-3.68-17.5,11.12-20.89,15.44-4.57,6.32,19.12-12.2,20.53-15.44,4.57Z"/><g><path class="tirli_face_upper_003-cls-2" d="M259.64,266.66c-.11,6.78,15.42,8.38,16.46,0,.11-6.78-15.42-8.38-16.46,0Z"/><path d="M259.61,266.66c-.11-.1-.23-.61-.06-1.34,.14-.73,.55-1.68,1.28-2.49,.72-.82,1.7-1.47,2.66-1.9,.95-.44,1.87-.67,2.53-.85,2.33-.59,5.04-.53,7.61,.6,1.27,.56,2.56,1.47,3.45,2.87,.45,.7,.73,1.52,.86,2.35l.05,.67c.05,.26-.06,.56-.06,.73-.05,.37-.12,.73-.24,1.09-.36,1.27-1.11,2.47-2.06,3.35-.95,.9-2.07,1.5-3.18,1.88-2.23,.76-4.45,.75-6.45,.34-2-.42-3.84-1.26-5.21-2.59-.68-.66-1.22-1.45-1.51-2.29-.3-.84-.33-1.7-.19-2.43,.41,.67,.93,1.3,1.55,1.74,.61,.44,1.27,.72,1.92,.92,1.29,.4,2.53,.52,3.14,.82,2.49,1.17,5.64,1.15,7.67-.26,.51-.34,.94-.77,1.25-1.27,.33-.49,.55-1.04,.66-1.62l.07-.39-.02-.37c-.04-.26-.07-.53-.18-.77-.18-.49-.47-.94-.85-1.32-1.56-1.52-3.86-2.02-5.82-2.1-2-.06-3.85,.32-5.32,1.03-.69,.35-1.62,.88-2.3,1.64-.71,.73-1.06,1.65-1.21,1.93Z"/></g></g></g><g id="tirli_head_accessory_003"><defs/><g><path class="tirli_head_accessory_003-cls-2" d="M111.23,176.08c-13.17,66.02,124.87,101.5,147.01,43.08,17.53-67.33-127.39-104.85-147.01-43.08Z"/><path d="M111.17,176.06c.02-.82,.91-5.16,4.35-10.65,1.74-2.71,4.14-5.64,7.22-8.33,3.07-2.71,6.81-5.16,10.94-7.11,8.27-3.97,17.95-5.98,26.78-6.61,8.86-.64,16.9-.06,22.6,.58,10.08,1.12,20.42,3.54,30.49,7.4,10.05,3.89,19.93,9.16,28.57,16.37,4.33,3.58,8.29,7.72,11.68,12.34,1.65,2.34,3.23,4.76,4.5,7.36,.7,1.27,1.22,2.63,1.81,3.95,.48,1.37,1.05,2.71,1.41,4.12,.87,2.78,1.36,5.66,1.67,8.54,.1,1.45,.23,2.89,.19,4.34,.03,1.45-.09,2.88-.2,4.31-.12,1.43-.37,2.84-.59,4.24l-.45,2.08-.26,1.19c-.23,.66-.35,.89-.49,1.23l-.82,1.98-.95,1.92c-.3,.65-.65,1.27-1.03,1.87-.37,.61-.71,1.23-1.1,1.83-2.72,4.16-6.16,7.82-10.02,10.84-3.89,2.99-8.16,5.34-12.57,7.17-8.85,3.65-18.18,5.16-27.27,5.54-18.25,.64-35.78-3.23-51.24-9.71-7.74-3.25-14.94-7.29-21.39-11.99-6.45-4.69-12.11-10.15-16.52-16.23-4.41-6.06-7.54-12.79-8.84-19.56-.67-3.37-.93-6.73-.84-9.96,.13-3.24,.62-6.34,1.3-9.28-.06,2.74-.1,5.75,.3,8.91,.39,3.16,1.09,6.45,2.21,9.69,2.21,6.51,6.13,12.71,10.88,17.84,4.75,5.14,10.12,9.37,15.08,12.62,4.93,3.29,9.42,5.67,12.47,7.38,12.35,6.83,25.77,11.13,39.07,13.08,13.29,1.91,26.67,1.51,38.68-2.24,5.97-1.91,11.59-4.67,16.27-8.48,2.34-1.9,4.48-4,6.28-6.35,1.8-2.34,3.31-4.88,4.53-7.52l.84-1.98c.06-.12,.07-.23,.11-.39l.12-.53,.24-1.06,.24-1.06,.16-1.07c.1-.72,.23-1.43,.31-2.14,.31-2.86,.3-5.72,.05-8.53-.31-2.81-.91-5.55-1.74-8.21-.88-2.64-2-5.17-3.3-7.6-2.69-4.8-6.08-9.1-9.91-12.85-3.8-3.78-8.02-7.02-12.38-9.87-8.74-5.7-18.1-9.76-27.41-12.7-9.32-2.93-18.65-4.71-27.72-5.46-9.07-.74-17.9-.45-26.19,1.06-3.92,.76-8.55,1.84-13.12,3.66-2.3,.87-4.56,1.97-6.75,3.17-2.14,1.26-4.26,2.59-6.1,4.14-3.79,2.98-6.67,6.54-8.61,9.65-1,1.55-1.71,3.01-2.32,4.21-.53,1.24-.95,2.21-1.23,2.85Z"/></g><g><path class="tirli_head_accessory_003-cls-2" d="M139.65,173.12c11.51,48.6,114.82,29.86,112.35-15.64-8.11-51.52-118.37-31.78-112.35,15.64Z"/><path d="M139.59,173.12c-.32-.55-1.14-3.75-.56-8.55,.32-2.38,1.03-5.12,2.28-7.91,1.24-2.8,3.02-5.62,5.22-8.23,4.39-5.26,10.33-9.61,16.11-12.78,5.79-3.18,11.4-5.31,15.45-6.67,7.15-2.43,14.89-4.06,22.93-4.62,8.02-.52,16.38-.09,24.55,2.12,4.08,1.08,8.1,2.64,11.88,4.76,1.89,1.07,3.72,2.26,5.43,3.65,1.73,1.35,3.32,2.9,4.78,4.56,1.47,1.66,2.72,3.5,3.86,5.4,1.05,1.94,2.04,3.93,2.7,6.01,.39,1.02,.63,2.08,.93,3.13,.15,.52,.23,1.05,.34,1.58l.16,.79,.1,.49c.06,.21,.05,.48,.06,.64,.03,1.19,.09,2.21,0,3.32-.02,1.09-.17,2.17-.3,3.25-.54,3.77-1.81,7.4-3.53,10.71-1.73,3.32-3.97,6.27-6.44,8.91-4.96,5.28-10.87,9.22-16.97,12.29-12.27,6.09-25.4,8.86-37.93,9.21-6.28,.16-12.43-.38-18.28-1.62-5.85-1.23-11.4-3.24-16.28-6.07-4.88-2.82-9.08-6.5-12.03-10.76-1.48-2.12-2.67-4.35-3.59-6.59-.89-2.26-1.49-4.53-1.91-6.75,.91,1.85,1.91,3.87,3.24,5.84,1.32,1.97,2.88,3.91,4.68,5.68,3.6,3.56,8.16,6.36,12.9,8.22,4.75,1.86,9.61,2.95,13.89,3.55,4.28,.64,7.97,.85,10.52,1.1,10.28,.95,20.59-.15,30.11-2.82,9.5-2.69,18.36-6.98,25.29-13.09,3.41-3.08,6.36-6.59,8.32-10.53,.99-1.96,1.76-4.01,2.27-6.11,.5-2.1,.72-4.24,.72-6.36-.03-.52,.02-1.12-.06-1.44l-.3-1.57c-.08-.53-.26-1.03-.38-1.54-.14-.51-.25-1.03-.44-1.52-.61-2.02-1.52-3.9-2.53-5.69-2.07-3.57-4.91-6.58-8.13-8.98-1.61-1.2-3.33-2.23-5.08-3.17-1.78-.88-3.58-1.72-5.44-2.36-3.69-1.36-7.51-2.2-11.3-2.77-7.59-1.12-15.1-.92-22.23-.03-7.14,.91-13.92,2.58-20.22,4.84-6.3,2.27-12.12,5.13-17.23,8.62-2.4,1.69-5.19,3.78-7.72,6.34-2.56,2.54-4.9,5.52-6.52,8.66-1.68,3.11-2.59,6.36-2.99,9.04-.22,1.34-.27,2.54-.33,3.54v2.3Z"/></g><path class="tirli_head_accessory_003-cls-1" d="M244.01,154.56c-.04,4.52-1.22,9.16-3.52,13.48-2.29,4.31-5.81,8.21-10.03,11-4.21,2.82-9.03,4.52-13.76,5.11-4.74,.6-9.42,.2-13.69-1.26-3.2-1.09-4.9-4.56-3.81-7.76,.69-2.02,2.33-3.44,4.24-3.94l.41-.1c3.55-.9,6.79-1.6,9.76-2.54,2.97-.94,5.63-2.02,8.06-3.42,2.42-1.4,4.62-3.11,6.71-5.31,2.12-2.18,4.05-4.85,6.17-7.88l.23-.33c1.61-2.29,4.77-2.85,7.06-1.24,1.41,.99,2.16,2.6,2.16,4.19Z"/><path class="tirli_head_accessory_003-cls-1" d="M254.54,199.68c-.6,4.5-2.51,8.92-5.32,12.76-2.81,3.84-6.54,7.05-10.63,9.38-4.09,2.35-8.53,3.84-12.98,4.5-4.44,.66-8.91,.59-13.16-.48-3.28-.83-5.27-4.16-4.44-7.44,.52-2.06,2.02-3.61,3.88-4.27l.35-.12c3.48-1.22,6.74-2.14,9.83-3.19,3.09-1.06,6-2.16,8.72-3.49,2.72-1.33,5.23-2.88,7.62-4.76,2.41-1.86,4.66-4.09,7.08-6.7l.29-.31c1.91-2.05,5.12-2.18,7.17-.27,1.25,1.16,1.78,2.82,1.58,4.39Z"/><g><path class="tirli_head_accessory_003-cls-3" d="M155.6,136.03c-2.44,15.89,11.37,11.45,12.09,5.91,2.99-11.85-11.39-13.18-12.09-5.91Z"/><path d="M155.57,136.03c-.13-.1-.22-.62-.06-1.39,.17-.76,.7-1.74,1.6-2.45,.88-.74,2.04-1.18,3.13-1.35,1.09-.19,2.1-.12,2.83-.02,2.26,.2,4.71,1.78,5.87,4.2,.58,1.19,.87,2.5,.92,3.76,.05,1.26-.11,2.48-.34,3.64l.04-.22c-.11,.88-.4,1.64-.76,2.31-.69,1.22-1.64,2.16-2.68,2.85-1.05,.7-2.2,1.2-3.43,1.46-1.23,.25-2.56,.25-3.83-.13-1.28-.37-2.43-1.21-3.18-2.19-.76-.99-1.17-2.07-1.39-3.08-.18-1.01-.27-1.97-.2-2.86,.1-1.78,.51-3.31,.97-4.61,.64,1.33,1.17,3.12,1.74,4.57,.27,.74,.58,1.36,.8,1.87,.25,.49,.44,.86,.51,1.14,.13,.45,.32,.85,.59,1.21,.28,.34,.64,.61,1.08,.81,.87,.39,2,.41,3.02,.14,2.06-.5,3.92-2.12,4.14-3.84v-.04l.02-.05c.37-1.5,.44-2.98,.17-4.3-.28-1.31-.92-2.42-1.78-3.19-1.74-1.56-4.13-1.86-5.98-1.42-.75,.19-1.76,.55-2.51,1.24-.76,.68-1.13,1.63-1.27,1.93Z"/></g><g><path class="tirli_head_accessory_003-cls-2" d="M165.75,89.89c-28.5,112.58,126.17,54.83,17.09,26.88-9.45-2.42-17.46-14.24-17.09-26.88Z"/><path d="M165.81,89.89c.35,.42,.45,2.56,1.14,5.58,.67,3.01,2,6.92,4.4,10.53,1.19,1.79,2.61,3.52,4.22,4.99,1.63,1.45,3.44,2.63,5.28,3.4,.46,.2,.91,.39,1.38,.5,.48,.13,.87,.27,1.41,.39,1.02,.24,2,.47,2.93,.69,1.87,.41,3.54,.87,4.94,1.19,4.95,1.2,10.04,2.73,15.1,4.88,5.03,2.18,10.18,4.82,14.51,9.36l.8,.87,.74,.97c.51,.62,.93,1.36,1.35,2.09,.22,.35,.41,.75,.57,1.16l.5,1.22c.22,.88,.54,1.73,.59,2.67,.28,1.84,.02,3.79-.55,5.53-.55,1.78-1.51,3.29-2.55,4.64-2.15,2.63-4.76,4.51-7.44,5.9-2.69,1.4-5.48,2.36-8.28,3.03-2.44,.6-4.93,.92-7.42,1.04-2.49,.12-4.98,.05-7.45-.29-4.92-.63-9.76-2.18-14.05-4.66-4.33-2.41-7.99-5.87-10.83-9.69-2.8-3.88-4.71-8.16-5.93-12.42-1.22-4.27-1.76-8.51-1.93-12.58-.14-4.07,.15-7.97,.59-11.68,.97-7.4,2.82-13.95,4.78-19.61,.32,5.6,.08,13.44,.58,20.61l.18,2.65c.05,.87,.17,1.72,.24,2.55,.12,1.67,.38,3.24,.54,4.69,.21,1.44,.4,2.77,.57,3.96,.22,1.16,.36,2.19,.44,3.03,.81,6.73,3.27,13.06,7.5,17.85,2.1,2.4,4.59,4.4,7.32,5.95,2.74,1.53,5.71,2.61,8.73,3.27,6.04,1.3,12.31,1.02,17.85-.75,2.76-.89,5.39-2.1,7.52-3.79,2.15-1.65,3.83-3.79,4.35-6.1,.58-2.31-.16-4.68-1.47-6.73-1.37-2.04-3.26-3.8-5.31-5.27-4.13-2.97-8.74-5.09-13.28-6.89-4.56-1.78-9.1-3.19-13.52-4.48-1.11-.31-2.21-.61-3.31-.91-.57-.17-1.04-.27-1.68-.49-.61-.21-1.24-.38-1.82-.64-2.37-.96-4.39-2.41-6.12-4.02-1.67-1.51-3.36-3.56-4.68-5.93-1.33-2.36-2.32-4.98-2.92-7.49-1.29-5.03-.7-9.45-.53-10.81Z"/></g><path class="tirli_head_accessory_003-cls-1" d="M209.75,135.2c-2.02,1.26-4.27,2.08-6.65,2.63-2.39,.52-4.94,.69-7.54,.38-2.59-.31-5.23-1.13-7.54-2.53-2.31-1.38-4.28-3.29-5.54-5.54-1-1.79-.35-4.05,1.44-5.05,1.05-.59,2.27-.6,3.29-.16l.34,.15c1.77,.78,3.28,1.47,4.8,2.01,1.52,.53,3.03,.96,4.67,1.27,1.64,.32,3.4,.51,5.28,.65,1.88,.17,3.86,.2,6,.43h.14c1.71,.2,2.95,1.73,2.76,3.44-.11,.99-.67,1.82-1.45,2.31Z"/><g><g><path class="tirli_head_accessory_003-cls-3" d="M144.65,215.03c18.44-3.33-6.77-23.88-7.91-13.29s.1,15.63,7.91,13.29Z"/><path d="M144.66,215.06c-.12,.26-1.95,1.31-4.52,1.02-.32-.01-.64-.13-.96-.24-.33-.08-.62-.27-.92-.46-.32-.16-.54-.42-.79-.66-.27-.23-.43-.51-.61-.78-.69-1.08-.99-2.16-1.21-2.9-.76-2.66-.78-5.51-.66-8.31l.05-1.05c.03-.38,.12-.89,.2-1.32,.08-.24,.17-.48,.27-.72,.09-.24,.19-.48,.37-.71,.16-.23,.32-.47,.52-.68,.22-.2,.45-.39,.68-.56,.97-.63,2.11-.86,3-.81,.48-.02,.88,.08,1.32,.13,.4,.09,.8,.19,1.18,.3,1.32,.41,2.46,1.02,3.53,1.71,1.07,.69,2.04,1.47,2.92,2.35,.88,.87,1.68,1.81,2.34,2.87,.66,1.05,1.22,2.18,1.49,3.47,.28,1.27,.24,2.73-.32,3.98-.26,.64-.68,1.14-1.09,1.62-.46,.39-.9,.81-1.4,1.04-1.93,1.06-3.75,1.19-5.3,1.25,1.19-1.07,2.94-2.27,3.84-3.52,.43-.63,.66-1.15,.68-1.58,.07-.19,.02-.41,.07-.57,.01-.18,0-.35,.05-.49,.21-1.21-.36-2.86-1.23-4.19-.86-1.36-1.99-2.56-3.22-3.52-1.23-.95-2.59-1.7-3.94-2.05-.66-.14-1.35-.24-1.9-.07-.55,.14-.93,.46-1.2,.91-.22,.52-.33,1.03-.36,1.74-.04,.69-.1,1.37-.11,2.04-.05,1.33-.07,2.62,0,3.83,.06,1.21,.18,2.37,.45,3.37,.26,1.01,.64,1.87,1.22,2.42,.16,.1,.31,.25,.49,.38,.21,.09,.41,.24,.66,.34,.26,.07,.52,.19,.81,.25,.3,.05,.6,.1,.89,.16,1.2,.1,2.32,.02,2.69,.03Z"/></g><g><path class="tirli_head_accessory_003-cls-3" d="M210.68,233.22c19.83-3.58-1.85-37.3-10.42-7.11-1.42,5.02,1,8.68,10.42,7.11Z"/><path d="M210.69,233.25c-.2,.3-2.51,1.01-5.38,.88-1.42-.07-3.02-.4-4.31-1.32-1.31-.93-1.87-2.44-2.05-3.41-.21-.89-.16-1.78-.08-2.66,.12-.9,.33-1.67,.53-2.48l.31-1.22,.4-1.21,.42-1.22c.16-.4,.35-.8,.53-1.2,.69-1.61,1.66-3.18,2.91-4.6,1.23-1.41,3.03-2.65,5.15-3,1.85-.31,3.75,.17,5.22,1.02,1.49,.85,2.65,2.01,3.58,3.27,.94,1.25,1.58,2.64,2.03,4.06,.46,1.42,.67,2.9,.6,4.35-.03,2.91-1.52,5.75-3.59,7.24-2.07,1.52-4.32,1.93-6.17,2.03,.74-.61,1.63-1.16,2.43-1.89,.83-.67,1.52-1.5,2.07-2.26,1.03-1.61,1.19-3.15,1.46-4,.31-.84,.34-1.79,.34-2.73-.09-.94-.22-1.9-.57-2.78-.61-1.8-1.72-3.41-3.13-4.47-1.39-1.12-3.16-1.44-4.7-.98-1.56,.46-2.82,1.69-3.75,3.01-.26,.31-.47,.67-.67,1.02-.2,.35-.42,.69-.6,1.05-.33,.74-.7,1.44-.97,2.18-.26,.75-.55,1.46-.77,2.19-.21,.74-.42,1.46-.63,2.17-.37,1.35-.42,2.65-.09,3.67,.36,.98,1.12,1.69,2.19,2.12,.98,.41,2.57,.78,4.05,.95,1.48,.15,2.8,.18,3.24,.22Z"/></g><g><path class="tirli_head_accessory_003-cls-3" d="M195.15,117.56c-5.54,3.4,5.83,15.87,9.43,6.17s-3.89-9.57-9.43-6.17Z"/><path d="M195.14,117.54c-.04-.34,1.14-1.27,2.74-1.97,.8-.35,1.69-.64,2.56-.81,.87-.17,1.71-.21,2.34-.18,1.1,0,2.51,.55,3.35,1.74,.85,1.18,1.02,2.55,1.01,3.73-.03,1.2-.25,2.32-.54,3.38-.28,1-.68,2.17-1.38,3.23-.6,.92-1.53,1.84-2.77,2.32-1.23,.49-2.57,.45-3.65,.14-2.18-.65-3.62-2.01-4.69-3.44-1.04-1.45-1.71-3.12-1.71-4.85,0-.85,.24-1.74,.72-2.42,.47-.69,1.13-1.1,1.73-1.32-.26,.66-.45,1.38-.37,2,.07,.62,.34,1.12,.62,1.56,.58,.89,1.28,1.59,1.46,2.11,.72,2.1,2.77,3.92,4.58,3.62,.44-.08,.85-.29,1.23-.58,.35-.32,.68-.69,.93-1.14,.5-.86,.82-1.9,1.06-2.87,.48-1.92,.31-3.92-.66-4.61-.94-.76-2.58-.66-4-.46-.71,.11-1.7,.27-2.58,.41-.9,.16-1.7,.36-1.98,.41Z"/></g><g><path class="tirli_head_accessory_003-cls-3" d="M181.41,181.82c6.9,16.95,25.06-7.29,11.36-9.37-13.7-2.07-15.17,2.38-11.36,9.37Z"/><path d="M181.38,181.83c-.32-.07-1.65-1.76-2.27-4.28-.1-.31-.12-.65-.15-.99-.05-.34-.03-.69,.01-1.05,0-.36,.12-.71,.25-1.06,.09-.36,.32-.66,.52-.96,.18-.33,.46-.53,.7-.76,.24-.25,.51-.41,.76-.55,.5-.34,.98-.52,1.37-.68,1.4-.57,2.9-.82,4.39-.91,.75-.05,1.51-.08,2.25-.05,.75,0,1.51,.03,2.25,.11,1.4,.1,3.21,.24,4.9,1.17,.85,.43,1.61,1.16,2.22,1.98,.53,.87,.92,1.83,1.02,2.76,.23,1.63-.08,3.14-.56,4.48-.49,1.34-1.18,2.55-2,3.63-1.67,2.1-3.82,3.85-6.48,4.53-1.32,.33-2.75,.34-4.03-.05-1.3-.36-2.32-1.17-3.11-1.97-1.53-1.7-2.15-3.55-2.56-5.14,1.33,1.03,2.93,2.53,4.45,3.22,1.55,.66,2.62,.5,3.31,.56,.69,.06,1.46-.05,2.22-.32,.74-.3,1.49-.68,2.15-1.2,1.35-.99,2.41-2.35,3.14-3.77,.33-.72,.62-1.47,.72-2.21,.09-.37,.06-.74,.09-1.1-.05-.35-.05-.71-.17-1.03-.33-1.35-1.51-2.2-2.79-2.59-1.28-.37-2.82-.44-4.2-.55-1.4-.08-2.74-.1-4,.01-1.27,.07-2.42,.34-3.37,.73-.96,.41-1.5,.99-1.74,1.82-.23,.77-.23,2.18,.03,3.46,.24,1.28,.58,2.4,.67,2.78Z"/></g><g><path class="tirli_head_accessory_003-cls-3" d="M133,183.12c4.34-9.69-19.02-6.94-9.7,1.64,5.69,5.24,6.65,5.42,9.7-1.64Z"/><path d="M133.03,183.14c.22,.26-.17,1.64-.87,3.21-.37,.78-.76,1.62-1.51,2.33-.18,.18-.44,.33-.66,.48-.24,.11-.49,.19-.73,.27-.25,.03-.49,.04-.72,.06-.21-.03-.41-.05-.6-.08-1.23-.24-2.12-.81-3-1.36-.88-.57-1.68-1.19-2.47-1.82-.81-.66-1.73-1.45-2.41-2.58-.19-.26-.33-.59-.47-.92-.15-.31-.24-.7-.32-1.08-.1-.36-.06-.81-.06-1.21,.05-.4,.14-.83,.28-1.21,.53-1.36,1.53-2.21,2.45-2.77,.94-.57,1.9-.9,2.85-1.1,1.89-.4,3.75-.35,5.52,.16,.88,.27,1.73,.65,2.49,1.24,.75,.59,1.38,1.43,1.66,2.34,.31,.92,.16,1.8-.02,2.51-.14,.34-.26,.67-.41,.96-.17,.28-.34,.54-.51,.79-.09-.33-.18-.67-.26-1-.08-.33-.22-.67-.32-.97-.28-.61-.63-1.07-.99-1.3-.37-.22-.72-.3-1.03-.42-.34-.1-.63-.21-.83-.36-.83-.59-2-.95-3.13-1.01-1.13-.07-2.28,.07-3.24,.48-.48,.2-.9,.47-1.23,.78-.3,.33-.54,.69-.6,1.08-.14,.78,.3,1.66,.9,2.37,.58,.73,1.37,1.32,2.13,1.96,.75,.6,1.49,1.19,2.19,1.66,.69,.47,1.42,.84,1.76,.82,.19,.02,.37-.06,.53-.15,.19-.15,.43-.35,.65-.62,.83-.98,2.6-3.15,2.98-3.53Z"/></g><g><path class="tirli_head_accessory_003-cls-3" d="M165.72,222.13c-2.45,6.08,9.52,12.89,12.57,5.1,3.05-7.79-10.12-11.19-12.57-5.1Z"/><path d="M165.69,222.12c-.1-.12-.07-.59,.25-1.2,.32-.6,.96-1.3,1.81-1.78,1.72-1.01,3.98-1.02,5.19-.97,2.15,.08,4.66,.92,6.35,3.16,.82,1.11,1.3,2.6,1.25,4-.05,1.42-.44,2.66-1.06,3.82-.55,1.02-1.41,1.98-2.5,2.62-1.08,.64-2.31,.93-3.44,.93-2.28,0-4.2-.88-5.71-2.01-1.5-1.15-2.63-2.65-3.15-4.3-.25-.82-.36-1.67-.25-2.46,.1-.79,.39-1.48,.75-2.03,.18,.7,.41,1.41,.77,2,.35,.6,.79,1.08,1.24,1.48,.89,.8,1.78,1.32,2.13,1.79,1.38,1.91,3.97,3.01,5.92,2.26,.97-.36,1.73-1.16,2.16-2.12,.45-.96,.66-2,.48-2.91-.31-1.87-1.94-3.07-3.51-3.67-1.61-.61-3.27-.72-4.7-.55-.68,.11-1.63,.24-2.41,.66-.81,.38-1.37,1.05-1.57,1.27Z"/></g><g><path class="tirli_head_accessory_003-cls-3" d="M153.21,162.44c-3.8,6.6,2.61,17.27,8.21,8.21,5.6-9.07-4.4-14.8-8.21-8.21Z"/><path d="M153.18,162.42c-.09-.14,.06-.56,.38-1.16,.36-.56,.98-1.26,1.87-1.75,.2-.16,.46-.2,.7-.31,.25-.08,.49-.2,.75-.23,.52-.05,1.05-.17,1.55-.09,.25,.02,.5,.05,.74,.07,.23,.07,.45,.13,.66,.19,.44,.1,.79,.28,1.1,.42,2.27,.91,3.77,3.64,3.76,6.27,.01,.66-.11,1.29-.18,1.94-.15,.61-.35,1.21-.53,1.82-.5,1.12-1,2.22-1.7,3.19-.59,.86-1.35,1.71-2.38,2.4-1,.7-2.51,1.14-3.94,.87-1.43-.28-2.52-1.1-3.25-1.95-.74-.87-1.21-1.8-1.53-2.73-1.27-3.7-.21-7.32,1.53-9.22,.14,1.4,.39,2.97,.79,4.23,.38,1.28,.83,2.28,.86,2.87,.05,1.19,.46,2.36,1.13,3.1,.67,.75,1.58,.98,2.55,.56,.97-.4,1.78-1.31,2.42-2.23,.34-.46,.57-.98,.83-1.46,.29-.48,.42-1,.58-1.49,.32-1,.34-1.99,.24-2.9-.19-.89-.48-1.72-1.01-2.33-.98-1.31-2.47-1.85-3.81-1.84-.17-.02-.34,0-.52,.05-.19,.02-.4,.05-.6,.07-.38,.16-.88,.2-1.26,.46l-.6,.31c-.18,.12-.33,.26-.48,.37-.3,.24-.53,.42-.65,.51Z"/></g><g><path class="tirli_head_accessory_003-cls-3" d="M212.77,144.32c.65-3.81-.29-8.81-5.54-6.27-5.25,2.54,4.88,10.08,5.54,6.27Z"/><path d="M212.8,144.33c.12,.07,.25,.38,.02,.86-.24,.51-1.03,.83-1.67,.78-1.32-.06-2.49-.72-3.2-1-1.25-.54-2.49-1.38-3.4-2.92-.21-.4-.41-.84-.51-1.38-.11-.52-.1-1.18,.07-1.76,.16-.59,.51-1.15,.9-1.55,.39-.41,.79-.7,1.18-.93,.67-.35,1.17-.62,1.91-.81l.52-.14,.59-.07c.2-.01,.39-.04,.6-.03,.22,.02,.43,.04,.65,.07,.42,.02,.88,.23,1.29,.39,.39,.23,.81,.47,1.1,.78,.15,.15,.3,.31,.43,.47,.12,.16,.22,.33,.32,.49,.22,.33,.32,.66,.45,.98,.41,1.29,.35,2.41,.18,3.38-.18,.97-.51,1.8-.89,2.49-.71-.8-1.32-1.74-1.81-2.48-.48-.76-.82-1.28-.77-1.58,.11-.65,.04-1.18-.21-1.53-.25-.37-.85-.54-1.49-.48-.32,.05-.65,.09-.97,.23l-.48,.17-.39,.2c-.46,.31-.7,.69-.66,1.12,.01,.42,.26,.92,.59,1.34,.32,.43,.72,.81,1.12,1.15,.81,.68,1.67,1.2,2.41,1.62,.36,.16,.8,.51,1.18,.6,.4,.17,.84-.3,.95-.45Z"/></g><g><path class="tirli_head_accessory_003-cls-3" d="M181.32,145.29c-6.32-2.05-14.11,8.2-5.93,10.82,13.39,4.3,12.25-8.77,5.93-10.82Z"/><path d="M181.33,145.26c.12-.11,.6-.1,1.25,.16,.64,.26,1.42,.79,2.09,1.52,.68,.73,1.22,1.66,1.57,2.58,.36,.92,.52,1.82,.61,2.48,.14,1.17-.02,2.54-.79,3.76-.73,1.24-2.05,2.11-3.36,2.54-1.33,.44-2.66,.49-3.89,.41-1.23-.1-2.43-.3-3.52-.61-.96-.24-2.14-.65-3.15-1.45-1.02-.77-1.92-2.05-2.13-3.42-.25-1.37,.03-2.64,.47-3.66,.45-1.04,1.07-1.89,1.75-2.62,1.38-1.43,3.05-2.36,4.73-2.74,1.68-.41,3.37-.13,4.54,.54-1.42,.41-2.79,1.16-3.75,2.05-.98,.86-1.67,1.72-2.19,2.02-1.05,.6-1.93,1.52-2.34,2.53-.42,1-.29,2.03,.42,2.81,.36,.38,.83,.69,1.33,.95,.51,.23,1.09,.41,1.67,.58,1.15,.31,2.28,.49,3.35,.48,1.07,0,2.07-.23,2.85-.66,.79-.42,1.3-1.08,1.6-1.8,.56-1.49,.26-3.19-.31-4.6-.29-.66-.69-1.61-1.28-2.36-.56-.77-1.29-1.3-1.53-1.49Z"/></g><g><path class="tirli_head_accessory_003-cls-3" d="M127.77,153.25c-8.53-2.82-6.21,22.95,4.46,10.83,4.08-4.63,2.57-8.83-4.46-10.83Z"/><path d="M127.78,153.22c.23-.23,1.84,0,3.6,.8,.86,.43,1.77,.98,2.48,1.71,.7,.73,1.2,1.58,1.44,2.26,.47,1.19,.41,2.62,0,3.83-.4,1.23-1.06,2.32-1.81,3.3-.76,.93-1.55,1.85-2.63,2.63-1.04,.77-2.38,1.53-4.12,1.49-.37-.01-.75-.04-1.11-.16l-.55-.16c-.17-.07-.33-.16-.5-.24-.34-.16-.63-.37-.89-.59-.29-.21-.51-.45-.72-.69-.85-.97-1.33-2.02-1.67-3.04-.64-2.04-.71-4.03-.46-5.91,.29-1.86,.92-3.69,2.29-5.07,.68-.68,1.64-1.14,2.54-1.2,.91-.1,1.66,.23,2.26,.53-.71,.24-1.45,.47-1.95,.96-.5,.46-.7,.99-.83,1.52-.24,1.09-.27,2.2-.5,2.79-.95,2.36-.88,5.32,.27,7.24,.59,.95,1.47,1.48,2.45,1.31,.98-.12,1.93-.77,2.72-1.48l.59-.55,.53-.61c.37-.39,.65-.82,.95-1.22,.54-.83,.94-1.69,1.1-2.49,.33-1.62-.36-2.89-1.52-3.94-.52-.49-1.35-1.19-2.16-1.77-.8-.6-1.58-1.05-1.82-1.24Z"/></g><g><path class="tirli_head_accessory_003-cls-3" d="M263.13,189.13c-2.08-2.34-6.88-2.77-10.22-.64-16.36,11.88,18.49,21.15,10.22,.64Z"/><path d="M263.16,189.12c.32,.07,1.24,1.73,1.71,3.91,.1,.55,.23,1.12,.22,1.71,0,.29,.04,.59,.03,.88l-.09,.87c-.01,.29-.08,.56-.17,.83-.08,.27-.14,.53-.22,.77-.23,.46-.39,.92-.61,1.25-.7,1.24-1.95,2.24-3.32,2.78-1.38,.56-2.87,.75-4.34,.7-1.47-.06-2.92-.37-4.3-.92-1.37-.55-2.69-1.35-3.78-2.54-.94-1.03-1.68-2.47-1.77-4.03-.11-1.55,.37-3.04,1.07-4.12,.67-1.15,1.52-2,2.38-2.76,.41-.41,.9-.7,1.34-1.04,.24-.16,.43-.33,.7-.48,.28-.15,.56-.31,.83-.42,2.15-.94,4.38-1.03,6.29-.59,1.9,.43,3.56,1.46,4.42,2.84-1.58-.53-3.37-.48-4.88-.17-1.52,.29-2.7,.82-3.37,.91-.35,.04-.69,.12-1.01,.21l-.45,.15-.49,.28c-.32,.19-.66,.37-.97,.58-.3,.23-.6,.46-.89,.68-1.11,.95-1.95,2.12-2.11,3.35-.13,1.23,.47,2.44,1.41,3.32,.94,.89,2.14,1.48,3.34,1.83,2.41,.7,4.92,.5,6.66-.45,.87-.47,1.51-1.15,1.9-1.93,.4-.78,.63-1.66,.69-2.57,0-.22,.03-.46,.06-.71v-.82c.05-.57-.02-1.17-.04-1.75-.06-1.16-.24-2.18-.24-2.53Z"/></g><g><path class="tirli_head_accessory_003-cls-3" d="M242.16,153.69c12.52,.84,2.31-23.72-4.62-15.76-6.08,6.98-7.02,15.04,4.62,15.76Z"/><path d="M242.16,153.72c-.21,.25-2.23,.38-4.53-.24-.29-.09-.58-.18-.87-.27-.29-.1-.57-.26-.85-.39-.59-.24-1.09-.65-1.59-1.02-.93-.83-1.59-1.86-1.87-2.65-.31-.7-.42-1.44-.51-2.21,0-.75,.01-1.53,.18-2.26,.28-1.49,.84-2.9,1.55-4.19,.68-1.32,1.55-2.5,2.44-3.65,.25-.3,.59-.64,.89-.94,.38-.28,.73-.59,1.17-.82,.87-.5,1.96-.7,2.98-.63,1.79,.2,3.11,1.12,4.12,2.04,1.01,.95,1.77,2.01,2.39,3.1,1.21,2.19,1.93,4.51,2.08,6.86,.07,1.17,0,2.35-.3,3.5-.31,1.14-.9,2.26-1.77,3.07-.86,.81-1.94,1.3-2.91,1.39-.49,.1-.95,.04-1.39,.05-.44-.05-.85-.13-1.24-.2,.37-.2,.76-.4,1.14-.59,.38-.26,.77-.43,1.1-.73,.71-.51,1.15-1.18,1.35-1.8,.42-1.23,.24-2.55,.39-3.31,.26-1.52,.1-3.22-.36-4.76-.44-1.56-1.18-2.99-2.12-4.14-.94-1.14-2.21-1.94-3.38-1.79-.59,.05-1.12,.4-1.6,.78-.45,.42-.89,1-1.32,1.55-.83,1.12-1.54,2.26-2.05,3.42-.55,1.14-.87,2.32-.99,3.41-.15,1.1,.04,2.1,.44,2.91,.16,.44,.5,.76,.75,1.13l.53,.46,.26,.24,.31,.19c.2,.11,.4,.25,.62,.4,.22,.15,.5,.25,.76,.4,.51,.31,1.11,.54,1.68,.78,.56,.27,1.12,.41,1.57,.57,.45,.16,.8,.28,.97,.34Z"/></g><g><path class="tirli_head_accessory_003-cls-3" d="M235.4,175.96c-1.82,12.12-22.25-13.2-9.31-15.69s13.9,4.3,9.31,15.69Z"/><path d="M235.37,175.95c-.22-.33,.5-2.4,1.06-4.81,.28-1.21,.52-2.5,.6-3.67,.08-1.17-.03-2.2-.24-2.87-.36-1.2-1.03-2.1-2-2.58-.98-.49-2.27-.65-3.62-.62-1.36,.04-2.78,.25-4.18,.55-1.38,.27-2.24,.71-2.7,1.33-.78,1-.5,3.28,.33,5.27,.81,2.03,2,3.96,3.3,5.62,1.3,1.63,2.81,3.12,4.19,3.69,.69,.25,1.14,.32,1.62-.07,.51-.39,.82-1.2,1.1-1.91,.23,.73,.55,1.74,.05,2.89-.15,.26-.33,.56-.58,.81-.27,.2-.58,.5-.93,.59-.17,.07-.36,.13-.54,.18-.18,.04-.35,.05-.54,.07-.38,.05-.72,.03-1.05-.01-1.35-.17-2.44-.69-3.3-1.21-.85-.53-1.47-1.09-1.82-1.54-1.39-1.82-2.46-3.65-3.34-5.51-.85-1.87-1.53-3.76-1.75-5.75-.11-.99-.06-2.01,.2-3,.28-1,.89-1.89,1.66-2.55,.41-.29,.8-.6,1.25-.76,.22-.09,.43-.21,.65-.28l.66-.18c.89-.25,1.66-.35,2.49-.49,1.63-.25,3.25-.38,4.87-.19,1.59,.16,3.31,.74,4.51,2.02,.59,.63,1.01,1.38,1.28,2.14,.26,.76,.37,1.52,.42,2.24,.06,1.45-.14,2.79-.45,4.03-.51,2.41-2.69,5.92-3.17,6.56Z"/></g><g><path class="tirli_head_accessory_003-cls-3" d="M238.35,214.71c-3.42,5.68,5.12,17.43,8.75,4.84,3.63-12.59-5.33-10.52-8.75-4.84Z"/><path d="M238.32,214.69c-.19-.28,.5-1.78,1.89-3.08,1.34-1.33,3.4-2.32,4.89-2.36,.63-.05,1.37,.06,2.04,.43,.67,.36,1.2,.96,1.56,1.58,.72,1.27,.85,2.57,.88,3.79,0,1.22-.13,2.4-.35,3.51-.22,1.11-.48,2.2-.88,3.3-.33,.95-.77,1.91-1.45,2.85-.67,.91-1.68,1.9-3.18,2.28-.74,.16-1.54,.16-2.22-.03-.69-.18-1.28-.49-1.76-.84-.97-.71-1.62-1.55-2.12-2.39-.97-1.7-1.36-3.49-1.31-5.15,.03-.83,.18-1.63,.44-2.34,.27-.72,.67-1.34,1.11-1.83,.06,.72,.18,1.46,.38,2.14,.21,.69,.49,1.33,.78,1.91,.57,1.16,1.21,2.04,1.33,2.61,.26,1.14,.88,2.2,1.63,2.68,.37,.24,.74,.33,1.15,.25,.41-.08,.85-.35,1.23-.73,.77-.78,1.29-1.87,1.69-2.94,.38-1.08,.65-2.21,.83-3.27,.18-1.07,.23-2.11,.13-3.05-.11-.92-.39-1.77-.84-2.17-.79-.85-2.45-.43-3.79,.23-.64,.33-1.57,.79-2.36,1.33-.81,.52-1.45,1.11-1.69,1.29Z"/></g></g></g></g></svg><use xlink:href="#hex-frame" fill="none" clip-path="url(#hex-frame-foreground-clip)"/></svg>